<svg width="500" height="500" viewBox="0 0 500 500" fill="none" xmlns="http://www.w3.org/2000/svg">
<path d="M130.87 259.88L43.2598 259.75C43.2598 259.75 47.6198 254.08 52.4298 253.38C52.4298 253.38 61.8098 225.59 77.4298 225.38C91.9598 225.22 97.7598 242.52 97.7598 242.52C97.7598 242.52 104.51 234.77 110.94 238.33C117.37 241.89 121 252.07 121 252.07C121 252.07 128.25 256 130.87 259.88Z" fill="#EBEBEB"/>
<path d="M346 123.4L456.79 123.57C456.79 123.57 456.79 116.49 441.54 115.08C441.54 115.08 427.65 84.08 406.37 88.24C393.07 90.81 386.27 109 386.27 109C386.27 109 376.27 94.67 368.27 97.43C360.27 100.19 355.48 115.43 355.48 115.43C355.48 115.43 347.21 119.4 346 123.4Z" fill="#EBEBEB"/>
<path d="M102.48 357.83L213.27 358C213.27 358 213.27 350.92 198.02 349.51C198.02 349.51 184.13 318.51 162.85 322.67C149.6 325.24 142.85 343.42 142.85 343.42C142.85 343.42 132.85 329.09 124.85 331.85C116.85 334.61 112.06 349.85 112.06 349.85C112.06 349.85 103.74 353.83 102.48 357.83Z" fill="#EBEBEB"/>
<path d="M157.88 90.63L233.21 90.75C233.21 90.75 226.11 84.12 222.95 84.11C219.79 84.1 210.61 61.88 198.82 62.81C187.03 63.74 180.76 80.27 180.76 80.27C180.76 80.27 166.44 75.76 157.88 90.63Z" fill="#EBEBEB"/>
<path d="M312.87 393.91L388.2 394.02C388.2 394.02 381.11 387.4 377.95 387.39C374.79 387.38 365.6 365.16 353.81 366.08C342.02 367 335.75 383.54 335.75 383.54C335.75 383.54 321.44 379 312.87 393.91Z" fill="#EBEBEB"/>
<path d="M332.66 256.62L397.08 256.72C397.08 256.72 393.88 252.54 390.35 252.02C390.35 252.02 383.52 231.56 372.02 231.39C361.33 231.24 357.02 243.95 357.02 243.95C357.02 243.95 352.08 238.24 347.34 240.84C342.6 243.44 339.92 250.9 339.92 250.9C339.92 250.9 334.59 253.75 332.66 256.62Z" fill="#EBEBEB"/>
<path d="M166.13 298.37C159.5 303.46 152.81 308.47 146.13 313.46L125.96 328.34L105.63 343L95.4302 350.28L85.1602 357.47L95.1602 349.88L105.16 342.38L125.33 327.5L145.64 312.81C152.46 308 159.26 303.13 166.13 298.37Z" fill="#263238"/>
<path d="M132.77 401.4C127.89 405.21 122.95 408.94 118 412.66C113.05 416.38 108 420.02 103.07 423.66C98.14 427.3 93.05 431 88 434.57L80.41 439.94C77.87 441.69 75.34 443.48 72.77 445.22C75.2 443.3 77.68 441.43 80.13 439.54L87.55 434C92.55 430.28 97.55 426.64 102.48 422.95C107.41 419.26 112.48 415.68 117.55 412.09C122.62 408.5 127.65 404.88 132.77 401.4Z" fill="#263238"/>
<path d="M334.51 316.86C329.63 320.68 324.69 324.41 319.74 328.13C314.79 331.85 309.79 335.49 304.81 339.18C299.83 342.87 294.81 346.45 289.75 350.04L282.17 355.4C279.62 357.16 277.09 358.95 274.52 360.68C276.96 358.77 279.43 356.9 281.88 355.01L289.29 349.42C294.29 345.7 299.29 342.05 304.22 338.37C309.15 334.69 314.22 331.1 319.29 327.51C324.36 323.92 329.39 320.35 334.51 316.86Z" fill="#263238"/>
<path d="M419.1 189.34C414.22 193.16 409.28 196.89 404.33 200.6C399.38 204.31 394.33 207.97 389.4 211.65C384.47 215.33 379.4 218.93 374.33 222.51L366.75 227.88C364.2 229.64 361.68 231.42 359.11 233.16C361.54 231.24 364.01 229.38 366.46 227.48L373.88 221.89C378.83 218.18 383.83 214.53 388.81 210.89C393.79 207.25 398.81 203.61 403.87 200.02C408.93 196.43 414 192.82 419.1 189.34Z" fill="#263238"/>
<path d="M123.13 184.86C118.25 188.68 113.31 192.41 108.36 196.12C103.41 199.83 98.3601 203.49 93.4301 207.12C88.5001 210.75 83.4301 214.4 78.3701 217.98L70.7901 223.35C68.2401 225.11 65.7101 226.89 63.1401 228.63C65.5801 226.71 68.0501 224.85 70.5001 222.95L77.9101 217.36C82.9101 213.65 87.9101 210 92.8401 206.36C97.7701 202.72 102.84 199.08 107.91 195.5C112.98 191.92 118 188.34 123.13 184.86Z" fill="#263238"/>
<path d="M407.4 184.52C404.47 186.91 401.48 189.22 398.48 191.52C395.48 193.82 392.42 196.03 389.4 198.3C386.38 200.57 383.28 202.72 380.18 204.89L375.52 208.12C373.95 209.12 372.4 210.24 370.81 211.26C372.26 210.05 373.76 208.9 375.24 207.72L379.73 204.26C382.73 201.97 385.73 199.75 388.81 197.49C391.89 195.23 394.93 193.06 398.03 190.9C401.13 188.74 404.23 186.58 407.4 184.52Z" fill="#263238"/>
<path d="M118.67 175.92C115.75 178.31 112.75 180.62 109.75 182.92C106.75 185.22 103.75 187.44 100.67 189.7C97.5901 191.96 94.5501 194.13 91.4501 196.29L86.8001 199.52C85.2201 200.57 83.6701 201.64 82.0801 202.66C83.5401 201.46 85.0801 200.3 86.5101 199.12L91.0001 195.66C94.0001 193.37 97.0001 191.14 100.08 188.88C103.16 186.62 106.2 184.45 109.3 182.29C112.4 180.13 115.5 178 118.67 175.92Z" fill="#263238"/>
<path d="M165.63 280.81C160.75 284.62 155.81 288.35 150.86 292.07C145.91 295.79 140.86 299.43 135.93 303.12C131 306.81 125.93 310.39 120.87 313.98L113.29 319.35C110.74 321.11 108.21 322.89 105.64 324.63C108.08 322.71 110.55 320.84 113 318.95L120.41 313.36C125.41 309.64 130.41 306 135.34 302.31C140.27 298.62 145.34 295.04 150.41 291.45C155.48 287.86 160.51 284.29 165.63 280.81Z" fill="#263238"/>
<path d="M288.7 332.38L272.75 344.36L256.73 356.26L224.6 379.92L192.34 403.4L176.16 415.07L159.91 426.66L175.87 414.68L191.88 402.78L224.01 379.12L256.28 355.64L272.46 343.97L288.7 332.38Z" fill="#263238"/>
<path d="M342.56 143.77C334.81 151.1 326.74 161.2 316.15 164.38C307.84 166.85 298.95 164.69 291.32 161.09C274.56 153.16 258.32 135.82 263.32 115.82C265.32 107.82 275.39 98.0701 284.41 100.67C289.04 102.02 292.64 105.26 296.56 107.91C298.929 109.626 301.654 110.787 304.533 111.306C307.412 111.825 310.37 111.69 313.19 110.91C325.02 107.91 330.36 101.84 339.99 94.9101C340.895 94.1558 341.948 93.5997 343.082 93.2776C344.215 92.9556 345.403 92.8746 346.57 93.0401C349.285 93.2625 351.888 94.2201 354.1 95.8101C356.321 96.8757 358.242 98.4771 359.69 100.47C362.69 104.79 362.33 111.75 362.69 116.78C363.05 121.81 361.88 125.38 358.19 128.98C353 134 347.76 138.84 342.56 143.77Z" fill="#263238"/>
<path d="M339.62 148.05C346.29 140.87 352.82 133.58 359.39 126.32C359.39 126.32 359.39 126.21 359.33 126.25C353.75 132.07 348.09 137.8 342.58 143.69C337.07 149.58 332 155.77 326.13 161.05C312.92 172.9 295.52 163.8 286.32 151.81C285.9 151.27 285.08 152 285.52 152.53C293.93 162.81 307.72 171.84 321.25 165.44C328.66 162 334.16 153.91 339.62 148.05Z" fill="#263238"/>
<path d="M341.22 95.0001C341.36 94.8801 341.17 94.6701 341.02 94.7901C333.34 100.79 324.95 108.59 314.89 109.94C309.932 110.599 304.891 109.742 300.43 107.48C296.9 105.69 294.26 102.83 291.19 100.42C279.19 91.0001 263.76 104.11 264.9 117.51C264.9 117.79 265.41 117.76 265.4 117.51C265.01 107.72 271.77 98.5101 282.02 97.9501C290.25 97.4801 295.02 106.12 302.11 108.95C316.91 114.88 330.68 104.46 341.22 95.0001Z" fill="#263238"/>
<path d="M130.24 113.87C133.03 109.03 201.47 114.38 259.51 120.31H259.56C285.75 122.99 311.15 123.48 326.88 126.13C336.88 127.81 341.88 132.13 342.88 133.64C346.22 138.76 351.62 154.54 322.65 170.36C300.75 182.36 276.01 192.43 256.22 212.36C236.43 232.29 223.55 258.7 222.62 277.62C221.69 296.54 233.26 316.06 232.13 313.95C231.78 313.31 226.68 313.03 220.07 308.1C211.96 302.1 203.07 290.23 196.61 286.32C183.38 278.32 164.37 277.21 151.35 260.57C137.61 243 137 214.83 132.12 192C126.19 164.28 106.18 155.66 130.24 113.87Z" fill="#37474F"/>
<path d="M134.05 202.3C133.46 198.79 132.84 195.3 132.12 192C130.617 185.563 128.449 179.299 125.65 173.31C125.65 173.31 188.5 165.14 205.46 174.6C214.74 179.77 185.86 179 134.05 202.3Z" fill="#263238"/>
<path d="M206.54 295.2C202.93 291.46 199.54 288.08 196.6 286.31C193.192 284.343 189.622 282.671 185.93 281.31C192.77 256.38 199.23 239.36 211.53 229C219.41 222.35 196.8 263.11 206.54 295.2Z" fill="#263238"/>
<path d="M137.21 221.87C136.65 218.7 136.14 215.51 135.64 212.32C156.26 206.63 174.26 197.06 174.15 199.77C174 202.72 151.1 214.84 137.21 221.87Z" fill="#263238"/>
<path d="M105.71 167.4C105.71 167.4 103 141.72 123.6 113.54C125.6 110.8 156.11 101.73 175.73 102.34C195.35 102.95 209.47 110.4 232.17 116.43C254.87 122.46 317.17 122.08 331.6 126.96C341.55 130.31 342.84 133.66 342.84 133.66C342.84 133.66 331.35 128.52 324.16 127.81C295.75 125.01 243.69 134.23 230.5 132.52C214.41 130.42 196.63 126.9 183.19 128.52C168.13 130.36 115.33 159.22 105.71 167.4Z" fill="#455A64"/>
<path d="M331.82 187.86C330.53 194.997 327.912 201.829 324.1 208C307.49 234.75 273.05 278.49 265.2 290.69C250.92 312.94 183.6 358 183.6 358L162.6 325.37C162.6 325.37 227.01 268.05 227.83 266.56C232.5 258.1 269.59 203.83 269.69 202.09C270.59 184.29 286 169 286 169L331.82 187.86Z" fill="#263238"/>
<path d="M331.81 187.86C330.658 194.345 328.398 200.582 325.13 206.3C303.35 207.73 278.05 201.91 269.84 199.83C271.88 183 286 169 286 169L331.81 187.86Z" fill="#455A64"/>
<path d="M152.43 405.78C150.78 404.13 130.26 345.37 130.55 342.53C130.55 342.04 137.89 338.97 149.87 334.25C150.7 333.92 210.03 281.47 210.03 281.47L238.3 320.88L164.07 371.7C164.07 371.7 160.21 396.7 159.55 399.77C158.89 402.84 154.08 407.43 152.43 405.78Z" fill="#FFC727"/>
<path opacity="0.3" d="M238.3 320.88L228.09 327.88L200.42 290L210.03 281.51L238.3 320.88Z" fill="white"/>
<path opacity="0.1" d="M238.31 320.88L203.48 344.71L203.69 287.08C207.59 283.63 210.04 281.48 210.04 281.48L238.31 320.88Z" fill="black"/>
<path opacity="0.1" d="M271.18 206.77C268.473 211.717 265.65 216.593 262.71 221.4C259.8 226.22 256.79 230.98 253.76 235.73C250.73 240.48 247.61 245.16 244.42 249.8C241.23 254.44 238 259.06 234.51 263.51L238.76 256.2C240.2 253.77 241.64 251.35 243.11 248.95C246.03 244.14 249.05 239.39 252.11 234.65C255.17 229.91 258.26 225.21 261.43 220.56C264.6 215.91 267.82 211.3 271.18 206.77Z" fill="white"/>
<path d="M250.69 311.39L245.54 273C245.54 273 306.39 254.95 307.95 251.49C308.57 250.14 269.12 224.21 269.51 195.17C269.71 180.67 285.77 169.01 285.77 169.01L322.37 184.31C322.37 184.31 317.14 197.07 318.75 199.22C322.24 203.9 368.15 240.22 365.57 263.03C362.89 286.67 250.69 311.39 250.69 311.39Z" fill="#263238"/>
<path d="M318.75 199.2C302.01 193.48 283.22 200.2 271.18 206.2C270.052 202.643 269.489 198.931 269.51 195.2C269.71 180.7 285.77 169.04 285.77 169.04L322.38 184.34C322.38 184.34 317.15 197 318.75 199.2Z" fill="#455A64"/>
<path d="M305.89 188.69C308.525 189.694 310.96 191.16 313.08 193.02C314.154 193.924 315.172 194.893 316.13 195.92C317.085 196.945 317.961 198.042 318.75 199.2C316.6 197.41 314.56 195.55 312.44 193.78C311.39 192.89 310.32 192.03 309.23 191.18C308.14 190.33 307.05 189.48 305.89 188.69Z" fill="#263238"/>
<path d="M312.55 190.72C313.367 191.025 314.12 191.479 314.77 192.06C315.43 192.629 316.021 193.273 316.53 193.98C317.542 195.398 318.191 197.043 318.42 198.77C317.93 198.05 317.52 197.32 317.07 196.62C316.62 195.92 316.18 195.23 315.71 194.56C314.751 193.205 313.695 191.922 312.55 190.72Z" fill="#263238"/>
<path d="M308 251.47C309.357 251.964 310.649 252.619 311.85 253.42C313.058 254.207 314.211 255.075 315.3 256.02C316.387 256.956 317.415 257.958 318.38 259.02C319.343 260.09 320.225 261.23 321.02 262.43C318.84 260.54 316.79 258.6 314.65 256.75C313.59 255.82 312.5 254.92 311.4 254.03C310.3 253.14 309.14 252.29 308 251.47Z" fill="#37474F"/>
<path d="M271.18 206.18C271.739 208.075 272.482 209.91 273.4 211.66C273.83 212.55 274.3 213.42 274.77 214.29C275.24 215.16 275.77 216 276.28 216.83C276.79 217.66 277.33 218.5 277.88 219.32L279.55 221.76C280.74 223.34 281.89 224.94 283.16 226.46C285.59 229.58 288.28 232.46 290.96 235.38L295.11 239.62C296.52 241.01 297.96 242.37 299.36 243.77C297.84 242.5 296.36 241.18 294.85 239.89L290.54 235.78C287.725 232.964 285.054 230.007 282.54 226.92C280.031 223.831 277.758 220.559 275.74 217.13C273.675 213.732 272.137 210.04 271.18 206.18Z" fill="#37474F"/>
<path opacity="0.1" d="M283.87 173C281.378 175.946 279.336 179.245 277.81 182.79C276.273 186.269 275.366 189.994 275.13 193.79C274.945 197.556 275.533 201.32 276.86 204.85C277.537 206.61 278.35 208.315 279.29 209.95C280.22 211.62 281.23 213.25 282.29 214.84C284.42 218.033 286.73 221.101 289.21 224.03C291.67 227.03 294.29 229.82 296.97 232.6C299.65 235.38 302.45 238.05 305.3 240.65C308.15 243.25 311.08 245.81 314.07 248.28C307.599 243.952 301.513 239.074 295.88 233.7C290.169 228.374 285.059 222.438 280.64 216C279.553 214.373 278.533 212.707 277.58 211C276.6 209.268 275.764 207.459 275.08 205.59C273.729 201.809 273.214 197.78 273.57 193.78C274.435 185.852 278.085 178.489 283.87 173Z" fill="white"/>
<path d="M209.93 343.67C209.01 341.52 211.84 279.35 213.18 276.82C213.4 276.38 221.31 276.25 234.18 276.33C235.08 276.33 293.56 256.95 293.56 256.95L314 297.49L233.44 316.38C233.44 316.38 220.56 338.13 218.8 340.75C217.04 343.37 210.85 345.81 209.93 343.67Z" fill="#FFC727"/>
<path opacity="0.3" d="M314 297.49L301.21 300.49L282.53 260.61L293.56 257L314 297.49Z" fill="white"/>
<path d="M335 144.57C345.69 167.46 360.09 188.97 367.75 190C378.06 191.38 401.26 183.26 412.91 177.94C416.33 176.37 403.61 149.94 399.91 151.64C395.48 153.64 372.76 164.46 372.27 164.52C371.27 164.65 349.27 145.64 344.11 140.97C335.55 133.17 330.24 134.41 335 144.57Z" fill="#AD6359"/>
<path d="M430 169.05C425.5 173.4 412.81 178.68 409.26 178.78C405.71 178.88 396 157.6 397.67 154.37C399.34 151.14 415.67 137.68 422.03 137.1C428.39 136.52 434.64 164.54 430 169.05Z" fill="#AD6359"/>
<path d="M412.43 140C411.58 143.2 415.84 142.37 415.84 142.37C415.84 142.37 409.99 145.05 410.39 148.69C410.79 152.33 415.9 151.02 416.27 150.94C415.96 151.08 410.65 153.68 411.43 157.3C412.21 160.92 417.18 158.99 417.5 158.86C417.25 159.08 414.02 162.15 415.23 164.77C417.33 169.26 425.81 161.65 429.81 162.03C429.81 162.03 429.93 168.88 429.97 169.08C429.97 169.08 438.19 162 438.41 156.58C438.453 155.792 438.225 155.012 437.765 154.37C437.305 153.728 436.64 153.263 435.88 153.05C435.88 153.05 438.78 151.05 438.26 148.19C437.99 146.72 435.39 145.85 435.39 145.85C436.023 145.358 436.508 144.701 436.792 143.951C437.076 143.202 437.148 142.388 437 141.6C436.51 139.6 434 139.03 434 139.03C434 139.03 435.41 136.4 434.24 134.5C431.88 130.67 414.25 133.1 412.43 140Z" fill="#AD6359"/>
<path d="M433.61 138.88C433.623 138.88 433.636 138.875 433.645 138.865C433.654 138.856 433.66 138.843 433.66 138.83C433.66 138.817 433.654 138.804 433.645 138.795C433.636 138.785 433.623 138.78 433.61 138.78C427.386 138.124 421.109 139.372 415.61 142.36C415.43 142.46 415.52 142.78 415.73 142.71C421.473 140.574 427.496 139.284 433.61 138.88Z" fill="#263238"/>
<path d="M435.47 145.77C435.54 145.77 435.53 145.65 435.47 145.64C428.598 144.978 421.716 146.798 416.07 150.77C415.87 150.91 415.85 151.24 416.07 151.09C420 148.57 429.73 146.07 435.47 145.77Z" fill="#263238"/>
<path d="M417.2 159.26C422.76 155.43 428.99 153.77 435.63 152.98C435.71 152.98 435.69 152.85 435.63 152.84C432.27 152.34 428.09 153.28 424.9 154.29C421.922 155.172 419.227 156.816 417.08 159.06C417 159.15 417.09 159.34 417.2 159.26Z" fill="#263238"/>
<path d="M415.84 142.34C414.779 142.96 413.775 143.673 412.84 144.47C411.89 145.211 411.155 146.191 410.71 147.31C410.537 147.834 410.562 148.403 410.78 148.91C411.002 149.413 411.346 149.853 411.78 150.19C412.252 150.485 412.781 150.677 413.333 150.753C413.884 150.829 414.446 150.787 414.98 150.63L417.62 149.98L415.37 151.51C414.361 152.179 413.469 153.01 412.73 153.97C412.364 154.394 412.092 154.89 411.93 155.425C411.768 155.961 411.72 156.525 411.79 157.08C411.853 157.604 412.096 158.089 412.477 158.454C412.858 158.819 413.354 159.04 413.88 159.08C415.048 159.14 416.212 158.899 417.26 158.38L420.2 157L417.86 159.19C417.211 159.804 416.64 160.496 416.16 161.25C415.678 161.947 415.416 162.773 415.41 163.62C415.421 164.001 415.539 164.371 415.749 164.689C415.959 165.007 416.254 165.26 416.6 165.42C417.426 165.661 418.304 165.661 419.13 165.42C420.929 164.922 422.688 164.287 424.39 163.52C425.26 163.17 426.13 162.81 427.03 162.52C427.908 162.146 428.856 161.965 429.81 161.99C428.872 162.072 427.959 162.334 427.12 162.76C426.27 163.14 425.43 163.57 424.58 163.99C422.9 164.891 421.139 165.631 419.32 166.2C418.35 166.519 417.308 166.55 416.32 166.29C415.79 166.088 415.331 165.735 415 165.275C414.67 164.814 414.482 164.267 414.46 163.7C414.436 162.636 414.736 161.59 415.32 160.7C415.836 159.852 416.458 159.072 417.17 158.38L417.78 159.26C416.545 159.892 415.166 160.188 413.78 160.12C413.027 160.054 412.32 159.729 411.78 159.2C411.25 158.651 410.901 157.953 410.78 157.2C410.687 156.497 410.746 155.781 410.951 155.102C411.156 154.423 411.503 153.795 411.97 153.26C412.796 152.217 413.789 151.318 414.91 150.6L415.3 151.48C414.63 151.646 413.931 151.666 413.253 151.536C412.574 151.407 411.932 151.132 411.37 150.73C410.838 150.292 410.428 149.723 410.18 149.08C409.937 148.435 409.937 147.725 410.18 147.08C410.722 145.902 411.581 144.898 412.66 144.18C413.647 143.448 414.714 142.831 415.84 142.34Z" fill="#263238"/>
<path d="M400 151.59C400 151.59 410.31 127.11 417.9 135.83C420.16 138.42 426.33 151.75 423.68 153.05C420.25 154.71 416.68 149.63 414.88 146.05C414.88 146.05 412.54 154.87 405.88 155.05C404.677 155.066 403.493 154.752 402.457 154.142C401.42 153.532 400.57 152.649 400 151.59Z" fill="#AD6359"/>
<path d="M417.27 135.15C418.275 136.058 419.141 137.11 419.84 138.27C420.587 139.413 421.255 140.606 421.84 141.84C423.024 144.291 423.991 146.84 424.73 149.46C424.923 150.157 425.018 150.877 425.01 151.6C425.003 152.017 424.904 152.426 424.72 152.8C424.618 153.002 424.487 153.187 424.33 153.35C424.169 153.511 423.979 153.64 423.77 153.73C423.032 154.077 422.195 154.147 421.41 153.93C420.69 153.716 420.013 153.377 419.41 152.93C418.292 152.069 417.328 151.024 416.56 149.84C415.804 148.706 415.135 147.516 414.56 146.28L415.43 146.18C415.13 147.176 414.734 148.14 414.25 149.06C413.775 149.978 413.209 150.846 412.56 151.65C411.903 152.449 411.131 153.147 410.27 153.72C409.416 154.286 408.462 154.686 407.46 154.9C408.405 154.565 409.287 154.075 410.07 153.45C410.831 152.824 411.504 152.097 412.07 151.29C412.641 150.486 413.133 149.628 413.54 148.73C413.956 147.839 414.291 146.912 414.54 145.96L414.82 144.78L415.41 145.86C416.03 147.025 416.721 148.15 417.48 149.23C418.171 150.279 419.021 151.213 420 152C421 152.7 422.26 153.17 423.19 152.7C424.12 152.23 423.89 150.89 423.61 149.7C423.304 148.411 422.93 147.139 422.49 145.89C422.06 144.62 421.62 143.36 421.12 142.12C420.206 139.611 418.907 137.26 417.27 135.15Z" fill="#263238"/>
<path d="M383.62 158.74L392.8 187.93C392.8 187.93 371.93 192.68 365.65 189.62C359.37 186.56 343.15 164.93 336.11 148.81C329.07 132.69 334.47 131.31 347.81 143.2C361.15 155.09 371.81 163.58 372.29 163.44C372.77 163.3 383.62 158.74 383.62 158.74Z" fill="#FFC727"/>
<path d="M379.08 162.37C379.08 162.28 378.9 162.32 378.92 162.37C380.588 170.9 382.721 179.333 385.31 187.63C385.31 187.72 385.49 187.68 385.47 187.63C383.802 179.1 381.669 170.667 379.08 162.37Z" fill="#263238"/>
<path opacity="0.1" d="M355.56 179.79C348.62 171.29 340.56 158.96 336.11 148.79C330.4 135.79 332.86 132.35 341.11 137.84L355.56 179.79Z" fill="black"/>
<path d="M335.21 176.59L331.82 187.86L319.47 192.55L286 169C286 169 304.29 137 324.25 131.14C334.25 128.2 341.03 132.95 342.81 140.25C343.25 142.1 346.96 159.82 344.26 167.58C343.48 169.64 342.269 171.509 340.708 173.062C339.147 174.616 337.273 175.819 335.21 176.59Z" fill="#FFC727"/>
<path d="M322.31 168.55C324.284 169.449 326.166 170.538 327.93 171.8C328.81 172.45 329.65 173.15 330.48 173.89C330.9 174.25 331.32 174.59 331.75 174.94C332.179 175.305 332.661 175.602 333.18 175.82C333.23 175.82 333.18 175.93 333.18 175.92C332.672 175.795 332.177 175.625 331.7 175.41C331.235 175.179 330.793 174.904 330.38 174.59C329.48 173.95 328.62 173.24 327.72 172.59C325.93 171.26 324.13 169.93 322.24 168.78C322.12 168.72 322.21 168.51 322.31 168.55Z" fill="#263238"/>
<path d="M316.52 169.38C318.266 169.672 319.988 170.097 321.67 170.65C322.507 170.939 323.328 171.273 324.13 171.65L325.27 172.22C325.69 172.43 326.07 172.72 326.49 172.93C326.54 172.93 326.49 173.04 326.49 173.02C326.09 172.85 325.65 172.76 325.24 172.61L323.99 172.17C323.16 171.88 322.32 171.59 321.5 171.29C319.84 170.68 318.18 170.1 316.5 169.56C316.37 169.54 316.43 169.36 316.52 169.38Z" fill="#263238"/>
<path opacity="0.1" d="M334.09 165.02L324.22 150.47L325.07 145.48L343.95 153.63V156.82L334.09 165.02Z" fill="black"/>
<path opacity="0.1" d="M334.09 163.44L325.82 151.25L326.52 147.06L342.36 153.89V156.56L334.09 163.44Z" fill="black"/>
<path d="M321.63 127.85C296.87 125.1 276.86 128.13 271.72 133.23C267.47 137.46 253.61 156.47 247.31 168.31C245.55 171.64 271.88 187.31 273.31 183.51C275.53 177.69 291.52 150.11 291.71 149.65C292.1 148.65 318.14 141.31 324.71 139.65C336.92 136.73 334.76 129.31 321.63 127.85Z" fill="#AD6359"/>
<path d="M251.5 214C250.614 213.771 249.82 213.276 249.223 212.583C248.626 211.889 248.255 211.03 248.16 210.12C246.699 210.646 245.101 210.646 243.64 210.12C241.12 209.05 241.69 204.63 241.69 204.63C240.056 204.845 238.395 204.567 236.92 203.83C234.61 202.57 234.55 198.02 234.55 198.02C232.941 197.395 231.611 196.214 230.8 194.69C228.8 190.52 232.57 184.57 234.93 180.75C237.29 176.93 247.56 168.34 249.35 166.5L274 181.36C274 181.36 268.28 201.47 264.86 205.56C261.94 209 254.91 214.7 251.5 214Z" fill="#AD6359"/>
<path d="M248.66 210.14C252.6 207.21 255.45 203.28 258.52 199.51C258.59 199.43 258.46 199.32 258.39 199.41C255.39 203.19 251.66 206.32 248.5 209.97C248.41 210.07 248.56 210.22 248.66 210.14Z" fill="#263238"/>
<path d="M242.06 204.66C242.89 203.91 243.617 203.052 244.22 202.11C244.92 201.11 245.61 200.19 246.28 199.22C247.62 197.22 248.92 195.27 250.16 193.22C250.21 193.13 250.09 193.02 250.03 193.12C248.69 195.06 247.32 196.99 245.89 198.88C245.183 199.82 244.463 200.76 243.73 201.7C242.987 202.535 242.34 203.451 241.8 204.43C241.769 204.465 241.754 204.51 241.757 204.556C241.759 204.602 241.78 204.645 241.815 204.675C241.849 204.706 241.895 204.721 241.941 204.718C241.986 204.716 242.029 204.695 242.06 204.66Z" fill="#263238"/>
<path d="M234.61 197.86C235.35 197.171 235.966 196.359 236.43 195.46C237.03 194.56 237.62 193.66 238.23 192.76C239.43 190.97 240.64 189.17 241.91 187.42C241.97 187.34 241.84 187.23 241.78 187.32C240.48 189.09 239.16 190.85 237.88 192.63C237.25 193.51 236.62 194.38 236 195.27C235.36 196.022 234.859 196.882 234.52 197.81C234.5 197.86 234.57 197.89 234.61 197.86Z" fill="#263238"/>
<path d="M281.37 170.62L255 153.6C255 153.6 266.69 133.75 272.78 130.35C278.87 126.95 303.36 125.43 320.78 127.61C338.52 129.83 338.43 136.92 321.05 141.08C303.67 145.24 292.31 149.51 292.16 149.98C292.01 150.45 281.37 170.62 281.37 170.62Z" fill="#FFC727"/>
<path d="M283.29 167.57C284.84 164.79 292.29 150.13 292.5 150.03C292.93 149.82 299.67 147.45 301.67 146.75C303.37 146.15 305.08 145.58 306.79 145.02C308.2 144.89 309.61 144.76 311 144.5C311.021 144.5 311.041 144.492 311.056 144.477C311.071 144.462 311.08 144.441 311.08 144.42C311.08 144.399 311.071 144.379 311.056 144.364C311.041 144.349 311.021 144.34 311 144.34C310.025 144.359 309.053 144.442 308.09 144.59C309.97 143.98 311.85 143.38 313.72 142.76C313.72 142.76 313.72 142.69 313.72 142.7C309.53 143.64 292.17 149.07 292.11 149.31C292.05 149.55 283.22 166.92 283.11 167.31C283.08 167.42 283.24 167.65 283.29 167.57Z" fill="#263238"/>
<path d="M282.24 163C282.32 163.05 282.4 162.91 282.32 162.86C275.198 157.883 267.81 153.296 260.19 149.12C260.171 149.114 260.15 149.115 260.131 149.122C260.112 149.129 260.096 149.142 260.086 149.16C260.076 149.177 260.071 149.197 260.074 149.217C260.076 149.237 260.086 149.256 260.1 149.27C267.224 154.248 274.615 158.831 282.24 163Z" fill="#263238"/>
<path d="M324.65 128.22C324.65 128.22 329.17 144.59 335.91 146.37C342.65 148.15 345.48 141.19 345.48 141.19C345.48 141.19 337.7 129.72 324.65 128.22Z" fill="#AD6359"/>
<path d="M332.53 131.89C332.39 132.94 334.63 141 339.14 142.48C340.61 142.96 343.58 135.05 343.58 135.05L343.94 134.51L348.87 127.04L341.62 117.23L340.54 115.89C340.54 115.89 339.32 118.02 337.84 120.69L337.63 121.07C337.539 121.212 337.456 121.359 337.38 121.51C337.15 121.9 336.92 122.31 336.7 122.72C336.48 123.13 336.36 123.33 336.2 123.66L335.68 124.66C334.471 126.998 333.419 129.413 332.53 131.89Z" fill="#AD6359"/>
<path d="M337.84 120.69C337.789 123.299 338.309 125.887 339.362 128.274C340.416 130.661 341.978 132.789 343.94 134.51L348.87 127.04L341.62 117.23L340.54 115.89C340.54 115.89 339.32 118 337.84 120.69Z" fill="#263238"/>
<path d="M364.85 113.08C366.21 128.74 356.99 131.32 353.61 131.61C350.54 131.88 340.07 132.39 337.09 116.95C334.11 101.51 340.96 95.9501 347.94 94.9501C354.92 93.9501 363.48 97.4101 364.85 113.08Z" fill="#AD6359"/>
<path d="M357.33 121C356.95 121.682 356.402 122.257 355.74 122.67C355.369 122.878 354.943 122.968 354.52 122.93C353.6 122.83 353.45 122.02 353.52 121.29C353.551 120.908 353.632 120.531 353.76 120.17C354.833 120.816 356.082 121.107 357.33 121Z" fill="#263238"/>
<path d="M355.74 122.68C355.369 122.888 354.943 122.978 354.52 122.94C353.6 122.84 353.45 122.03 353.52 121.3C353.991 121.249 354.465 121.357 354.868 121.607C355.27 121.857 355.577 122.235 355.74 122.68Z" fill="#FF9BBC"/>
<path d="M360.31 110.89C359.96 111.01 359.61 111.07 359.26 111.16C358.901 111.306 358.506 111.334 358.13 111.24C358.018 111.185 357.928 111.094 357.873 110.982C357.819 110.869 357.804 110.742 357.83 110.62C357.912 110.388 358.054 110.183 358.242 110.025C358.431 109.866 358.658 109.761 358.9 109.72C359.383 109.566 359.906 109.594 360.37 109.8C360.472 109.854 360.556 109.935 360.613 110.035C360.67 110.135 360.697 110.25 360.69 110.364C360.684 110.479 360.645 110.59 360.577 110.683C360.51 110.776 360.417 110.848 360.31 110.89Z" fill="#263238"/>
<path d="M349.47 111.56C349.811 111.438 350.144 111.298 350.47 111.14C350.845 111.042 351.177 110.82 351.41 110.51C351.467 110.4 351.485 110.274 351.461 110.152C351.438 110.031 351.374 109.921 351.28 109.84C351.074 109.705 350.835 109.628 350.588 109.617C350.342 109.607 350.097 109.663 349.88 109.78C349.394 109.961 348.994 110.318 348.76 110.78C348.724 110.882 348.717 110.992 348.739 111.098C348.76 111.203 348.81 111.301 348.883 111.381C348.956 111.461 349.048 111.52 349.152 111.551C349.255 111.583 349.365 111.586 349.47 111.56Z" fill="#263238"/>
<path d="M351.73 114.56C351.73 114.56 351.65 114.62 351.66 114.66C351.81 115.72 351.81 116.96 350.88 117.42C350.88 117.42 350.88 117.49 350.88 117.48C352.06 117.19 352 115.54 351.73 114.56Z" fill="#263238"/>
<path d="M350.66 113.56C348.93 113.62 349.18 117.06 350.78 117.01C352.38 116.96 352.1 113.5 350.66 113.56Z" fill="#263238"/>
<path d="M350 113.79C349.72 114 349.45 114.37 349.08 114.43C348.71 114.49 348.32 114.16 348.03 113.84H347.97C347.97 114.5 348.31 115.16 349.03 115.21C349.75 115.26 350.1 114.63 350.22 113.96C350.23 113.87 350.11 113.7 350 113.79Z" fill="#263238"/>
<path d="M358.3 113.61C358.3 113.61 358.38 113.61 358.38 113.69C358.38 114.77 358.64 115.99 359.63 116.28V116.34C358.43 116.25 358.16 114.63 358.3 113.61Z" fill="#263238"/>
<path d="M359.18 112.43C360.89 112.19 361.24 115.62 359.66 115.85C358.08 116.08 357.74 112.63 359.18 112.43Z" fill="#263238"/>
<path d="M359.92 112.58C360.21 112.73 360.51 113.04 360.84 113.03C361.17 113.02 361.46 112.61 361.66 112.23C361.66 112.23 361.66 112.23 361.72 112.23C361.8 112.89 361.66 113.59 361.04 113.78C360.42 113.97 359.99 113.44 359.77 112.78C359.73 112.71 359.8 112.52 359.92 112.58Z" fill="#263238"/>
<path d="M352.92 123.21C353.18 123.45 353.44 123.79 353.83 123.81C354.23 123.791 354.622 123.689 354.98 123.51C354.834 123.725 354.632 123.897 354.396 124.006C354.16 124.116 353.899 124.158 353.64 124.13C353.42 124.081 353.219 123.967 353.064 123.803C352.909 123.639 352.807 123.433 352.77 123.21C352.77 123.19 352.778 123.171 352.792 123.157C352.806 123.143 352.825 123.135 352.845 123.135C352.865 123.135 352.884 123.143 352.898 123.157C352.912 123.171 352.92 123.19 352.92 123.21Z" fill="#263238"/>
<path d="M357.37 118.76C357.37 118.76 357.73 120.34 357.79 121.09C357.79 121.16 357.62 121.21 357.36 121.24C356.729 121.418 356.061 121.419 355.43 121.243C354.798 121.066 354.227 120.719 353.78 120.24C353.72 120.18 353.78 120.09 353.89 120.13C354.904 120.703 356.075 120.935 357.23 120.79C357.23 120.58 356.53 118.11 356.65 118.1C357.238 118.102 357.823 118.183 358.39 118.34C357.74 115.04 356.58 111.87 355.99 108.57C355.99 108.45 356.14 108.4 356.18 108.5C357.526 111.864 358.531 115.355 359.18 118.92C359.28 119.3 357.68 118.86 357.37 118.76Z" fill="#263238"/>
<path d="M338.43 117.68C340.98 117.68 341.15 112.32 341.15 112.32C341.15 112.32 346.3 111.95 347.44 104.41C347.462 106.643 346.829 108.833 345.62 110.71C345.62 110.71 354.62 109.05 357.87 101.17C357.87 101.17 356.64 105.17 355.32 106.64C357.572 105.76 359.458 104.142 360.67 102.05C360.67 102.05 362.59 106.32 363.9 107.43C363.9 107.43 362.32 91.5801 347.73 94.4301C347.73 94.4301 338.57 95.7401 335.81 103.29C333.05 110.84 338.43 117.68 338.43 117.68Z" fill="#263238"/>
<path d="M340.2 117.73C340.2 117.73 337 112.66 334.72 113.73C332.44 114.8 334.72 122.07 337.24 123.17C337.559 123.334 337.909 123.431 338.267 123.456C338.625 123.481 338.985 123.433 339.324 123.315C339.663 123.197 339.975 123.012 340.24 122.771C340.506 122.529 340.72 122.237 340.87 121.91L340.2 117.73Z" fill="#AD6359"/>
<path d="M335.41 115.84C335.41 115.84 335.36 115.84 335.41 115.91C337.2 116.73 338.09 118.48 338.68 120.27C338.581 120.082 338.443 119.917 338.275 119.787C338.107 119.657 337.913 119.565 337.707 119.517C337.5 119.468 337.285 119.465 337.077 119.507C336.868 119.549 336.672 119.635 336.5 119.76C336.45 119.76 336.5 119.87 336.55 119.86C336.877 119.776 337.222 119.794 337.539 119.912C337.855 120.03 338.128 120.242 338.32 120.52C338.64 120.988 338.905 121.491 339.11 122.02C339.19 122.18 339.49 122.11 339.43 121.92C339.57 119.54 337.91 116.19 335.41 115.84Z" fill="#263238"/>
<path d="M333.91 129.58C333.37 127.73 330.91 131.22 332.27 133.58C334.27 137.06 338.33 141.39 339.27 141.52C340.21 141.65 343.92 138.06 344.4 137.24C344.88 136.42 344.23 134.37 343.9 134.52C343.57 134.67 340.33 138.58 339.9 138.73C339.47 138.88 335.08 133.57 333.91 129.58Z" fill="#455A64"/>
<path d="M195.21 358.02L200.95 359.09L202.23 365.14L203.51 359.09L209.25 358.02L203.54 356.63L202.23 350.91L200.92 356.63L195.21 358.02Z" fill="#FFC727"/>
<path d="M238.56 108.68L244.3 109.74L245.59 115.79L246.87 109.74L252.61 108.67L246.89 107.28L245.59 101.56L244.28 107.28L238.56 108.68Z" fill="#FFC727"/>
<path d="M403.54 301.44L409.28 302.5L410.56 308.55L411.84 302.5L417.58 301.44L411.87 300.04L410.56 294.33L409.25 300.04L403.54 301.44Z" fill="#FFC727"/>
<path d="M350.22 236.28L355.96 237.34L357.24 243.4L358.52 237.34L364.26 236.28L358.55 234.88L357.24 229.17L355.93 234.88L350.22 236.28Z" fill="#FFC727"/>
<path d="M111.09 236.28L114.3 236.88L115.01 240.26L115.73 236.88L118.94 236.28L115.74 235.5L115.01 232.31L114.28 235.5L111.09 236.28Z" fill="#FFC727"/>
<path d="M417.44 217.49L420.65 218.09L421.37 221.47L422.08 218.09L425.29 217.49L422.1 216.71L421.37 213.52L420.63 216.71L417.44 217.49Z" fill="#FFC727"/>
<path d="M196.62 125.07L199.83 125.67L200.55 129.05L201.26 125.67L204.47 125.07L201.28 124.29L200.55 121.1L199.82 124.29L196.62 125.07Z" fill="#FFC727"/>
<path d="M129.6 297.12L132.81 297.71L133.53 301.09L134.24 297.71L137.45 297.12L134.25 296.33L133.53 293.14L132.79 296.33L129.6 297.12Z" fill="#FFC727"/>
<path d="M74.71 164.94L77.92 165.53L78.63 168.91L79.35 165.53L82.56 164.94L79.36 164.16L78.63 160.96L77.9 164.16L74.71 164.94Z" fill="#FFC727"/>
<path d="M168.05 168.92L171.26 169.51L171.98 172.89L172.7 169.51L175.91 168.91L172.71 168.13L171.98 164.94L171.25 168.13L168.05 168.92Z" fill="#FFC727"/>
<path d="M333.85 100.49L337.05 101.09L337.77 104.47L338.49 101.09L341.7 100.49L338.5 99.71L337.77 96.52L337.04 99.71L333.85 100.49Z" fill="#FFC727"/>
<path d="M377.11 152.84L380.31 153.44L381.03 156.82L381.75 153.44L384.95 152.84L381.76 152.06L381.03 148.87L380.3 152.06L377.11 152.84Z" fill="#FFC727"/>
<path d="M327.92 322.58L331.13 323.17L331.85 326.56L332.56 323.17L335.77 322.58L332.58 321.8L331.85 318.6L331.11 321.8L327.92 322.58Z" fill="#FFC727"/>
<path d="M172.27 301.79C172.517 301.79 172.753 301.888 172.927 302.062C173.102 302.237 173.2 302.473 173.2 302.72C173.2 302.967 173.102 303.203 172.927 303.378C172.753 303.552 172.517 303.65 172.27 303.65C172.023 303.65 171.787 303.552 171.612 303.378C171.438 303.203 171.34 302.967 171.34 302.72C171.34 302.473 171.438 302.237 171.612 302.062C171.787 301.888 172.023 301.79 172.27 301.79Z" fill="#FFC727"/>
<path d="M174.6 186C174.847 186 175.083 186.098 175.258 186.272C175.432 186.447 175.53 186.683 175.53 186.93C175.53 187.177 175.432 187.413 175.258 187.588C175.083 187.762 174.847 187.86 174.6 187.86C174.353 187.86 174.117 187.762 173.942 187.588C173.768 187.413 173.67 187.177 173.67 186.93C173.67 186.683 173.768 186.447 173.942 186.272C174.117 186.098 174.353 186 174.6 186Z" fill="#FFC727"/>
<path d="M303.44 117.76C303.669 117.784 303.881 117.892 304.035 118.062C304.189 118.233 304.274 118.455 304.274 118.685C304.274 118.915 304.189 119.137 304.035 119.308C303.881 119.478 303.669 119.586 303.44 119.61C303.211 119.586 303 119.478 302.846 119.308C302.692 119.137 302.606 118.915 302.606 118.685C302.606 118.455 302.692 118.233 302.846 118.062C303 117.892 303.211 117.784 303.44 117.76Z" fill="#FFC727"/>
<path d="M351.8 216.56C352.047 216.56 352.283 216.658 352.458 216.832C352.632 217.007 352.73 217.243 352.73 217.49C352.73 217.737 352.632 217.973 352.458 218.148C352.283 218.322 352.047 218.42 351.8 218.42C351.553 218.42 351.317 218.322 351.143 218.148C350.968 217.973 350.87 217.737 350.87 217.49C350.87 217.243 350.968 217.007 351.143 216.832C351.317 216.658 351.553 216.56 351.8 216.56Z" fill="#FFC727"/>
<path d="M385.52 270C385.766 270 386.003 270.098 386.177 270.272C386.352 270.447 386.45 270.683 386.45 270.93C386.45 271.177 386.352 271.413 386.177 271.588C386.003 271.762 385.766 271.86 385.52 271.86C385.273 271.86 385.037 271.762 384.862 271.588C384.688 271.413 384.59 271.177 384.59 270.93C384.59 270.683 384.688 270.447 384.862 270.272C385.037 270.098 385.273 270 385.52 270Z" fill="#FFC727"/>
<path d="M418.77 259.73C418.945 259.73 419.113 259.8 419.237 259.923C419.36 260.047 419.43 260.215 419.43 260.39C419.43 260.565 419.36 260.733 419.237 260.857C419.113 260.98 418.945 261.05 418.77 261.05C418.595 261.05 418.427 260.98 418.303 260.857C418.179 260.733 418.11 260.565 418.11 260.39C418.11 260.215 418.179 260.047 418.303 259.923C418.427 259.8 418.595 259.73 418.77 259.73Z" fill="#FFC727"/>
<path d="M368.76 140.86C368.935 140.86 369.103 140.93 369.227 141.053C369.351 141.177 369.42 141.345 369.42 141.52C369.42 141.695 369.351 141.863 369.227 141.987C369.103 142.11 368.935 142.18 368.76 142.18C368.585 142.18 368.417 142.11 368.293 141.987C368.17 141.863 368.1 141.695 368.1 141.52C368.1 141.345 368.17 141.177 368.293 141.053C368.417 140.93 368.585 140.86 368.76 140.86Z" fill="#FFC727"/>
<path d="M268.93 212.3C269.09 212.32 269.237 212.397 269.343 212.518C269.45 212.639 269.509 212.794 269.509 212.955C269.509 213.116 269.45 213.272 269.343 213.392C269.237 213.513 269.09 213.59 268.93 213.61C268.77 213.59 268.623 213.513 268.517 213.392C268.41 213.272 268.351 213.116 268.351 212.955C268.351 212.794 268.41 212.639 268.517 212.518C268.623 212.397 268.77 212.32 268.93 212.3Z" fill="#FFC727"/>
<path d="M352.35 342.8C352.525 342.8 352.693 342.87 352.817 342.993C352.94 343.117 353.01 343.285 353.01 343.46C353.01 343.635 352.94 343.803 352.817 343.927C352.693 344.051 352.525 344.12 352.35 344.12C352.175 344.12 352.007 344.051 351.883 343.927C351.759 343.803 351.69 343.635 351.69 343.46C351.69 343.285 351.759 343.117 351.883 342.993C352.007 342.87 352.175 342.8 352.35 342.8Z" fill="#FFC727"/>
<path d="M248.38 330.56C248.83 330.594 249.251 330.796 249.558 331.128C249.866 331.459 250.036 331.893 250.036 332.345C250.036 332.797 249.866 333.232 249.558 333.563C249.251 333.894 248.83 334.096 248.38 334.13C247.93 334.096 247.509 333.894 247.201 333.563C246.894 333.232 246.724 332.797 246.724 332.345C246.724 331.893 246.894 331.459 247.201 331.128C247.509 330.796 247.93 330.594 248.38 330.56Z" fill="#FFC727"/>
<path d="M133.52 244.06C133.992 244.06 134.445 244.248 134.778 244.581C135.112 244.915 135.3 245.368 135.3 245.84C135.3 246.312 135.112 246.765 134.778 247.099C134.445 247.433 133.992 247.62 133.52 247.62C133.048 247.62 132.595 247.433 132.261 247.099C131.927 246.765 131.74 246.312 131.74 245.84C131.74 245.368 131.927 244.915 132.261 244.581C132.595 244.248 133.048 244.06 133.52 244.06Z" fill="#FFC727"/>
<path d="M226.73 96.1001C227.202 96.1001 227.655 96.2876 227.989 96.6215C228.323 96.9553 228.51 97.408 228.51 97.8801C228.51 98.3522 228.323 98.8049 227.989 99.1387C227.655 99.4726 227.202 99.6601 226.73 99.6601C226.258 99.6601 225.805 99.4726 225.472 99.1387C225.138 98.8049 224.95 98.3522 224.95 97.8801C224.95 97.408 225.138 96.9553 225.472 96.6215C225.805 96.2876 226.258 96.1001 226.73 96.1001Z" fill="#FFC727"/>
<path d="M323.72 91.29C324.17 91.3238 324.591 91.5265 324.898 91.8575C325.205 92.1885 325.376 92.6234 325.376 93.075C325.376 93.5266 325.205 93.9615 324.898 94.2926C324.591 94.6236 324.17 94.8263 323.72 94.86C323.269 94.8263 322.849 94.6236 322.541 94.2926C322.234 93.9615 322.063 93.5266 322.063 93.075C322.063 92.6234 322.234 92.1885 322.541 91.8575C322.849 91.5265 323.269 91.3238 323.72 91.29Z" fill="#FFC727"/>
<path d="M294.89 343.91C295.341 343.944 295.761 344.146 296.069 344.478C296.376 344.809 296.546 345.243 296.546 345.695C296.546 346.147 296.376 346.582 296.069 346.913C295.761 347.244 295.341 347.446 294.89 347.48C294.44 347.446 294.019 347.244 293.712 346.913C293.405 346.582 293.234 346.147 293.234 345.695C293.234 345.243 293.405 344.809 293.712 344.478C294.019 344.146 294.44 343.944 294.89 343.91Z" fill="#FFC727"/>
</svg>
