<svg width="585" height="390" viewBox="0 0 585 390" fill="none" xmlns="http://www.w3.org/2000/svg">
<path d="M87.8199 251.636H67.1655V260.364H87.8199V251.636Z" fill="#EBEBEB"/>
<path d="M76.2994 262.642H55.645V271.37H76.2994V262.642Z" fill="#EBEBEB"/>
<path d="M353.574 168.94H332.919V177.668H353.574V168.94Z" fill="#EBEBEB"/>
<path d="M342.053 179.946H321.399V188.674H342.053V179.946Z" fill="#EBEBEB"/>
<path d="M330.579 168.94H309.925V177.668H330.579V168.94Z" fill="#EBEBEB"/>
<path d="M529.355 262.642H508.7V271.37H529.355V262.642Z" fill="#EBEBEB"/>
<path d="M517.834 49.0153H497.179V57.7435H517.834V49.0153Z" fill="#EBEBEB"/>
<path d="M529.355 60.021H508.7V68.7492H529.355V60.021Z" fill="#EBEBEB"/>
<path d="M87.8199 49.0153H67.1655V57.7435H87.8199V49.0153Z" fill="#EBEBEB"/>
<path d="M166.311 178.955L161.288 190.016L164.681 191.576C165.166 191.8 165.579 192.154 165.875 192.599C166.171 193.043 166.338 193.561 166.358 194.095C166.387 194.701 166.446 195.305 166.537 195.905C166.621 196.431 166.557 196.971 166.354 197.464C166.15 197.956 165.814 198.383 165.383 198.697L162.357 200.866L169.431 210.74L172.458 208.58C172.893 208.27 173.405 208.087 173.938 208.051C174.471 208.015 175.004 208.128 175.476 208.377C176.013 208.667 176.565 208.928 177.13 209.157C177.63 209.347 178.068 209.673 178.394 210.097C178.72 210.521 178.923 211.027 178.979 211.559L179.337 215.264L191.427 214.071L191.061 210.358C191.013 209.825 191.113 209.289 191.352 208.81C191.59 208.331 191.956 207.927 192.41 207.644C192.66 207.488 192.909 207.316 193.151 207.145C193.393 206.973 193.635 206.794 193.869 206.606C194.279 206.267 194.776 206.049 195.304 205.976C195.831 205.903 196.369 205.978 196.856 206.193L200.265 207.753L205.28 196.693L201.887 195.133C201.402 194.908 200.989 194.554 200.693 194.11C200.397 193.665 200.23 193.147 200.21 192.613C200.184 192.01 200.127 191.409 200.038 190.811C199.955 190.285 200.019 189.745 200.222 189.253C200.426 188.76 200.762 188.333 201.193 188.019L204.219 185.851L197.137 175.976L194.118 178.144C193.682 178.451 193.169 178.632 192.636 178.666C192.104 178.701 191.572 178.587 191.1 178.339C190.567 178.059 190.017 177.811 189.454 177.598C188.953 177.409 188.515 177.084 188.189 176.659C187.862 176.235 187.66 175.728 187.605 175.196L187.239 171.483L175.149 172.676L175.515 176.389C175.56 176.92 175.458 177.452 175.22 177.928C174.982 178.405 174.617 178.806 174.166 179.088C173.908 179.252 173.659 179.423 173.386 179.595L172.668 180.133C172.255 180.474 171.756 180.693 171.225 180.766C170.695 180.839 170.155 180.763 169.665 180.547L166.311 178.955ZM177.489 185.195C179.089 184.047 180.993 183.4 182.961 183.335C184.929 183.269 186.872 183.789 188.545 184.829C190.217 185.868 191.544 187.38 192.357 189.174C193.169 190.968 193.432 192.962 193.111 194.905C192.79 196.848 191.899 198.651 190.553 200.088C189.206 201.525 187.464 202.53 185.546 202.976C183.628 203.422 181.621 203.289 179.778 202.594C177.936 201.899 176.341 200.673 175.195 199.072C173.674 196.93 173.061 194.273 173.491 191.68C173.92 189.088 175.357 186.771 177.489 185.234V185.195Z" fill="#EBEBEB"/>
<path d="M503.763 85.5738L498.677 88.5144L499.574 90.0744C499.703 90.2991 499.767 90.5553 499.759 90.8142C499.75 91.0732 499.67 91.3248 499.527 91.5408C499.362 91.7906 499.213 92.0512 499.083 92.3208C498.969 92.5535 498.793 92.7499 498.574 92.8877C498.355 93.0255 498.101 93.0993 497.842 93.1008H496.08V98.9742H497.874C498.132 98.9756 498.386 99.0495 498.605 99.1873C498.824 99.3251 499 99.5215 499.114 99.7542C499.246 100.023 499.395 100.283 499.558 100.534C499.702 100.75 499.782 101.002 499.79 101.261C499.798 101.52 499.734 101.776 499.605 102.001L498.708 103.561L503.794 106.493L504.691 104.933C504.824 104.711 505.016 104.53 505.246 104.41C505.476 104.29 505.735 104.237 505.993 104.255H506.851C507.109 104.235 507.367 104.289 507.596 104.409C507.825 104.529 508.015 104.71 508.146 104.933L509.051 106.493L514.137 103.561L513.24 102.001C513.111 101.777 513.048 101.522 513.056 101.265C513.064 101.007 513.144 100.757 513.286 100.542C513.446 100.29 513.592 100.03 513.723 99.762C513.838 99.5287 514.016 99.332 514.236 99.1942C514.457 99.0564 514.711 98.9829 514.971 98.982H516.765V93.1086H514.971C514.712 93.1059 514.458 93.0317 514.238 92.8941C514.017 92.7565 513.839 92.5608 513.723 92.3286C513.595 92.059 513.45 91.7984 513.286 91.5486C513.143 91.3326 513.063 91.081 513.055 90.822C513.047 90.5631 513.111 90.3069 513.24 90.0822L514.137 88.5222L509.051 85.5816L508.146 87.1416C508.015 87.3621 507.825 87.5421 507.598 87.6618C507.371 87.7815 507.115 87.8363 506.859 87.8202H505.993C505.734 87.8385 505.474 87.7839 505.244 87.6627C505.014 87.5414 504.822 87.3582 504.691 87.1338L503.763 85.5738ZM506.391 91.1898C507.343 91.1898 508.274 91.472 509.065 92.0009C509.856 92.5297 510.473 93.2813 510.837 94.1607C511.202 95.0401 511.297 96.0077 511.111 96.9413C510.926 97.8748 510.467 98.7324 509.794 99.4054C509.121 100.078 508.264 100.537 507.33 100.723C506.397 100.908 505.429 100.813 504.549 100.449C503.67 100.084 502.918 99.4676 502.39 98.6761C501.861 97.8847 501.579 96.9542 501.579 96.0024C501.578 95.3701 501.701 94.7438 501.943 94.1595C502.184 93.5751 502.539 93.0442 502.986 92.5971C503.433 92.15 503.964 91.7955 504.548 91.554C505.133 91.3125 505.759 91.1888 506.391 91.1898Z" fill="#EBEBEB"/>
<path d="M68.9442 111.174L72.5088 115.854L73.9362 114.754C74.1428 114.598 74.3889 114.503 74.6466 114.479C74.9044 114.456 75.1635 114.505 75.3948 114.621C75.66 114.746 75.933 114.855 76.1748 114.957C76.4195 115.04 76.636 115.19 76.8 115.39C76.964 115.59 77.0689 115.831 77.103 116.088L77.337 117.866L83.1636 117.086L82.9296 115.308C82.8975 115.051 82.9366 114.792 83.0425 114.556C83.1485 114.321 83.3172 114.119 83.5302 113.974C83.7739 113.81 84.0083 113.633 84.2322 113.443C84.4268 113.273 84.6648 113.161 84.9195 113.118C85.1743 113.076 85.4359 113.104 85.6752 113.202L87.36 113.88L89.6142 108.42L87.945 107.734C87.7075 107.631 87.5031 107.464 87.3545 107.252C87.2058 107.04 87.1186 106.791 87.1026 106.533C87.1026 106.392 87.1026 106.252 87.0558 106.104C87.009 105.955 87.0168 105.823 86.9934 105.674C86.9414 105.422 86.9614 105.161 87.051 104.919C87.1407 104.678 87.2964 104.467 87.5004 104.309L88.92 103.272L85.3554 98.5921L83.9202 99.6841C83.7136 99.8395 83.4681 99.9349 83.2107 99.9597C82.9533 99.9845 82.6941 99.9377 82.4616 99.8245C82.2078 99.6989 81.9474 99.5869 81.6816 99.4891C81.4379 99.4041 81.2223 99.2536 81.0586 99.0541C80.8948 98.8545 80.7892 98.6137 80.7534 98.3581L80.5194 96.5719L74.6928 97.3519L74.9268 99.1381C74.9593 99.3931 74.9203 99.652 74.8142 99.8861C74.7082 100.12 74.5393 100.32 74.3262 100.464C74.085 100.63 73.8532 100.81 73.632 101.002C73.4354 101.172 73.1958 101.283 72.9397 101.324C72.6836 101.366 72.4211 101.335 72.1812 101.236L70.5198 100.55L68.2656 105.971L69.927 106.665C70.165 106.765 70.3701 106.93 70.519 107.141C70.6679 107.352 70.7547 107.601 70.7694 107.859L70.8162 108.288C70.8162 108.436 70.8162 108.576 70.8864 108.717C70.9363 108.971 70.9146 109.233 70.8237 109.476C70.7328 109.718 70.5763 109.931 70.3716 110.089L68.9442 111.174ZM74.1702 107.843C74.0485 106.899 74.2094 105.94 74.6326 105.088C75.0558 104.235 75.7223 103.527 76.5478 103.053C77.3733 102.58 78.3208 102.361 79.2703 102.426C80.2199 102.491 81.129 102.835 81.8827 103.417C82.6363 103.998 83.2007 104.79 83.5044 105.692C83.808 106.594 83.8374 107.566 83.5888 108.484C83.3402 109.403 82.8248 110.228 82.1077 110.853C81.3906 111.479 80.504 111.878 79.56 112C78.9331 112.081 78.2964 112.038 77.6863 111.873C77.0761 111.708 76.5045 111.424 76.004 111.038C75.5034 110.652 75.0839 110.171 74.7693 109.623C74.4546 109.075 74.2511 108.47 74.1702 107.843Z" fill="#EBEBEB"/>
<path d="M235.497 59.3892H172.278V136.071H235.497V59.3892Z" fill="#EBEBEB"/>
<path d="M228.275 66.3858H179.501V129.074H228.275V66.3858Z" fill="white"/>
<path d="M181.405 66.3858H179.501V129.074H181.405V66.3858Z" fill="#DBDBDB"/>
<path d="M237.401 59.3892H235.498V136.071H237.401V59.3892Z" fill="#DBDBDB"/>
<path d="M207.347 75.0282H195.85V109.294H207.347V75.0282Z" fill="#DBDBDB"/>
<path d="M221.488 98.358H190.827V115.144H221.488V98.358Z" stroke="#EBEBEB" stroke-width="0.78" stroke-miterlimit="10"/>
<path d="M410.818 59.3892H347.599V136.071H410.818V59.3892Z" fill="#EBEBEB"/>
<path d="M403.595 66.3858H354.822V129.074H403.595V66.3858Z" fill="white"/>
<path d="M356.725 66.3858H354.822V129.074H356.725V66.3858Z" fill="#DBDBDB"/>
<path d="M412.722 59.3892H410.818V136.071H412.722V59.3892Z" fill="#DBDBDB"/>
<path d="M382.668 75.0282H371.17V109.294H382.668V75.0282Z" fill="#DBDBDB"/>
<path d="M396.809 98.358H366.147V115.144H396.809V98.358Z" stroke="#EBEBEB" stroke-width="0.78" stroke-miterlimit="10"/>
<path d="M323.154 59.3892H259.935V136.071H323.154V59.3892Z" fill="#EBEBEB"/>
<path d="M315.939 66.3858H267.166V129.074H315.939V66.3858Z" fill="white"/>
<path d="M269.069 66.3858H267.166V129.074H269.069V66.3858Z" fill="#DBDBDB"/>
<path d="M325.065 59.3892H323.162V136.071H325.065V59.3892Z" fill="#DBDBDB"/>
<path d="M296.681 82.5864H286.83V107.5H296.681V82.5864Z" fill="#EBEBEB"/>
<path d="M307.055 97.7262H280.589V114.902H307.055V97.7262Z" stroke="#DBDBDB" stroke-width="0.78" stroke-miterlimit="10"/>
<path d="M292.5 357.646C427.636 357.646 537.186 349.023 537.186 338.387C537.186 327.751 427.636 319.129 292.5 319.129C157.364 319.129 47.814 327.751 47.814 338.387C47.814 349.023 157.364 357.646 292.5 357.646Z" fill="#EBEBEB"/>
<path d="M173.698 236.293H149.011V289.63H173.698V236.293Z" fill="#FFC727"/>
<g opacity="0.1">
<path d="M173.706 236.293H168.051V289.63H173.706V236.293Z" fill="black"/>
</g>
<path d="M206.224 216.13H181.537V289.63H206.224V216.13Z" fill="#FFC727"/>
<g opacity="0.1">
<path d="M206.232 216.13H200.577V289.63H206.232V216.13Z" fill="black"/>
</g>
<path d="M141.242 248.305H116.555V289.63H141.242V248.305Z" fill="#FFC727"/>
<g opacity="0.1">
<path d="M141.242 248.305H135.587V289.63H141.242V248.305Z" fill="black"/>
</g>
<path d="M238.758 189.29H214.071V289.63H238.758V189.29Z" fill="#FFC727"/>
<g opacity="0.1">
<path d="M238.758 189.29H233.103V289.63H238.758V189.29Z" fill="black"/>
</g>
<path d="M107.804 273.608V263.32C107.804 263.32 197.73 257.4 234.07 180.71L237.682 181.428C237.682 181.428 213.556 260.06 107.804 273.608Z" fill="#37474F"/>
<path d="M241.051 184.01L229.694 181.108L239.109 173.885L241.051 184.01Z" fill="#37474F"/>
<path d="M41.1606 289.466L103.997 289.279L166.834 289.208L292.5 289.076L418.166 289.208L481.003 289.279L543.84 289.466L481.003 289.661L418.166 289.723L292.5 289.856L166.834 289.723L103.997 289.661L41.1606 289.466Z" fill="#263238"/>
<path d="M511.93 242.681C511.93 242.681 519.223 216.52 525.041 207.636C530.86 198.752 541.71 188.994 541.71 188.994C541.71 188.994 541.453 229.32 511.93 242.681Z" fill="#FFC727"/>
<path d="M512.46 242.229C514.915 238.134 517.134 233.902 519.106 229.554C519.942 224.881 521.153 220.282 522.725 215.803C522.725 215.717 522.873 215.764 522.857 215.849C521.89 219.976 520.759 224.078 519.737 228.197C522.686 221.832 525.478 215.381 528.98 209.36C529.792 206.453 530.925 203.646 532.358 200.99C532.358 200.912 532.529 200.99 532.49 201.037C531.604 203.082 530.843 205.179 530.213 207.316C531.868 204.633 533.719 202.075 535.751 199.664C535.883 199.516 536.133 199.664 536.008 199.844C531.328 205.826 528.091 212.628 525.01 219.515C528.323 215.922 531.38 212.101 534.16 208.081C534.16 208.081 534.245 208.081 534.222 208.127C531.326 212.633 528.048 216.881 524.425 220.826C522.187 225.872 519.979 230.966 517.304 235.739C522.647 231.223 526.757 225.373 530.829 219.734C530.85 219.712 530.877 219.699 530.907 219.696C530.936 219.692 530.966 219.7 530.991 219.717C531.015 219.734 531.033 219.759 531.04 219.788C531.048 219.817 531.045 219.847 531.032 219.874C526.96 226.06 522.748 231.886 516.89 236.473C515.706 238.58 514.404 240.619 512.99 242.58C512.944 242.65 512.871 242.699 512.789 242.716C512.706 242.733 512.62 242.716 512.55 242.67C512.479 242.623 512.43 242.551 512.414 242.468C512.397 242.385 512.413 242.299 512.46 242.229Z" fill="#263238"/>
<path d="M508.014 242.713C508.014 242.713 521.118 218.595 517.312 195.211C513.505 171.826 509.434 163.496 509.434 163.496C509.434 163.496 488.834 199.867 508.014 242.713Z" fill="#FFC727"/>
<path d="M502.64 204.797C503.748 211.433 505.439 217.958 507.694 224.297C507.733 215.717 507.897 207.137 508.123 198.557C506.65 193.332 505.82 187.946 505.651 182.52C505.651 182.364 505.885 182.372 505.892 182.52C506.305 187.159 507.075 191.759 508.193 196.279C508.391 189.197 508.62 182.117 508.88 175.04C508.88 175.015 508.89 174.991 508.907 174.974C508.925 174.956 508.949 174.946 508.973 174.946C508.998 174.946 509.022 174.956 509.04 174.974C509.057 174.991 509.067 175.015 509.067 175.04C509.067 186.092 509.067 197.153 508.989 208.213C510.585 203.938 511.85 199.547 512.772 195.078C512.772 195.031 512.85 195.078 512.842 195.078C512.452 200.249 510.884 205.218 508.942 210.031C508.888 217.105 508.81 224.172 508.654 231.239C510.869 223.727 513.24 216.419 513.88 208.502C513.885 208.484 513.896 208.469 513.911 208.458C513.926 208.447 513.943 208.442 513.962 208.442C513.98 208.442 513.998 208.447 514.012 208.458C514.027 208.469 514.038 208.484 514.043 208.502C513.872 217.253 511.618 226.145 508.724 234.382C508.695 234.465 508.644 234.538 508.576 234.593C508.513 237.175 508.443 239.756 508.349 242.338C508.338 242.406 508.304 242.467 508.251 242.511C508.199 242.555 508.133 242.579 508.065 242.579C507.996 242.579 507.93 242.555 507.878 242.511C507.826 242.467 507.791 242.406 507.78 242.338C507.681 237.05 507.637 231.764 507.647 226.481C504.794 219.562 503.051 212.236 502.484 204.773C502.487 204.753 502.498 204.734 502.515 204.722C502.532 204.709 502.553 204.704 502.574 204.707C502.594 204.71 502.613 204.721 502.625 204.738C502.638 204.755 502.643 204.776 502.64 204.797Z" fill="#263238"/>
<path d="M503.536 201.068C503.992 203.168 504.297 205.298 504.449 207.441C504.449 207.511 504.34 207.519 504.324 207.441C503.817 205.352 503.458 203.231 503.248 201.092C503.232 200.936 503.505 200.905 503.536 201.068Z" fill="#263238"/>
<path d="M511.196 183.433C511.196 183.362 511.321 183.386 511.321 183.433C511.302 184.919 511.081 186.396 510.666 187.824C510.659 187.848 510.642 187.868 510.62 187.879C510.598 187.891 510.573 187.894 510.549 187.886C510.525 187.879 510.505 187.863 510.493 187.841C510.482 187.819 510.479 187.793 510.486 187.769C510.767 186.342 510.947 184.86 511.196 183.433Z" fill="#263238"/>
<path d="M504.66 244.07C504.66 244.07 501.899 219.04 493.1 207.574C484.302 196.108 471.596 191.357 471.596 191.357C471.596 191.357 482.173 234.725 504.66 244.07Z" fill="#FFC727"/>
<path d="M488.787 224.445C492.239 228.427 496.022 232.109 500.097 235.451C498.017 230.537 495.703 225.737 493.155 221.052C488.678 218.057 484.216 214.937 481.12 210.444C481.111 210.429 481.109 210.412 481.112 210.396C481.115 210.379 481.124 210.364 481.137 210.354C481.151 210.344 481.167 210.338 481.184 210.339C481.201 210.34 481.217 210.347 481.229 210.358C484.435 214.258 488.428 217.222 492.586 220.015C488.733 212.958 484.448 206.146 479.755 199.618C479.737 199.583 479.732 199.544 479.74 199.506C479.749 199.468 479.77 199.435 479.801 199.411C479.832 199.388 479.87 199.376 479.909 199.378C479.947 199.38 479.984 199.396 480.012 199.423C482.786 202.801 485.372 206.329 487.758 209.992C486.736 207.418 485.847 204.758 484.809 202.192C484.808 202.178 484.811 202.165 484.818 202.154C484.824 202.142 484.835 202.134 484.847 202.128C484.859 202.123 484.872 202.122 484.885 202.125C484.898 202.128 484.91 202.135 484.918 202.145C486.771 205.357 488.225 208.783 489.247 212.347C492.493 217.55 495.36 222.98 497.827 228.595C497.149 224.882 496.423 221.185 495.55 217.503C495.55 217.433 495.651 217.402 495.675 217.503C497.015 221.531 497.935 225.687 498.42 229.905C499.939 233.493 501.301 237.133 502.507 240.825C502.507 240.926 502.39 240.989 502.351 240.887C501.753 239.327 501.132 237.804 500.487 236.317C500.487 236.317 500.433 236.317 500.401 236.317C496.049 232.978 491.821 229.07 488.779 224.476C488.733 224.445 488.764 224.422 488.787 224.445Z" fill="#263238"/>
<path d="M477.812 205.226C478.725 206.006 479.575 206.786 480.464 207.566C481.299 208.215 482.082 208.93 482.804 209.703C482.804 209.703 482.804 209.781 482.757 209.765C481.77 209.214 480.865 208.529 480.066 207.73C479.201 206.993 478.4 206.184 477.672 205.312C477.656 205.265 477.75 205.14 477.812 205.226Z" fill="#263238"/>
<path d="M524.698 241.488L523.785 253.414L521.039 289.466H497.117L494.371 253.414L493.458 241.488H524.698Z" fill="#455A64"/>
<path d="M524.698 241.488L523.785 253.414H494.371L493.458 241.488H524.698Z" fill="#37474F"/>
<path d="M491.33 244.78H526.82V235.638H491.33V244.78Z" fill="#455A64"/>
<path d="M186.209 325.018C184.649 325.533 138.855 325.135 137.116 324.012C136.461 323.591 136.125 316.93 135.962 308.857C135.923 307.117 132.467 279.045 132.467 279.045L163.059 279.224L165.461 309.036C165.461 309.036 182.91 317.023 184.681 318.451C186.451 319.878 187.816 324.48 186.209 325.018Z" fill="#EB9481"/>
<path d="M186.209 325.018C184.649 325.533 138.855 325.135 137.116 324.012C136.601 323.677 136.281 319.465 136.086 313.732C143.886 314.909 170.406 318.841 176.288 318.263C180.273 317.873 177.707 315.416 174.845 313.412C179.298 315.533 183.83 317.764 184.68 318.451C186.42 319.886 187.816 324.48 186.209 325.018Z" fill="#263238"/>
<path d="M88.9199 165.688C88.9199 165.688 123.692 226.528 124.589 230.802C125.978 237.338 134.035 308.584 134.035 308.584L168.262 308.373C168.262 308.373 161.46 244.764 155.672 225.989C152.506 215.74 135.845 187.957 128.037 174.236C127.343 173.012 127.546 167.404 127.546 167.404L88.9199 165.688Z" fill="#455A64"/>
<path d="M164.962 302.64C159.65 302.539 143.59 302.094 136.516 302.64C136.461 302.64 136.461 302.734 136.516 302.741C138.941 303.116 159.65 302.866 164.962 302.741C164.973 302.754 164.986 302.762 165.002 302.766C165.017 302.77 165.034 302.769 165.048 302.764C165.063 302.758 165.076 302.748 165.085 302.735C165.095 302.722 165.099 302.707 165.099 302.691C165.099 302.675 165.095 302.659 165.085 302.646C165.076 302.633 165.063 302.623 165.048 302.618C165.034 302.612 165.017 302.611 165.002 302.615C164.986 302.619 164.973 302.628 164.962 302.64Z" fill="#263238"/>
<path d="M94.9027 171.304C97.1881 174.985 99.5827 178.589 101.923 182.224C104.263 185.858 106.603 189.524 108.88 193.198C113.467 200.546 117.947 207.956 122.32 215.428C124.443 218.873 126.252 222.502 127.725 226.27C129.074 230.047 130.074 233.94 130.713 237.9C131.391 241.878 131.82 245.887 132.218 249.896C132.649 254.171 133.073 258.44 133.489 262.704C134.355 271.44 136.321 286.946 137.194 295.682C137.296 296.751 137.397 297.827 137.491 298.896C137.491 299.052 137.226 299.083 137.21 298.896C136.227 290.215 134.332 274.716 133.45 266.042C133.008 261.721 132.569 257.395 132.132 253.063C131.726 249.038 131.352 245.014 130.767 241.004C130.24 237.048 129.416 233.137 128.302 229.304C127.076 225.34 125.409 221.525 123.334 217.932C119.145 210.491 114.699 203.174 110.253 195.874C105.807 188.573 101.252 181.178 96.5563 173.94C95.9791 173.043 95.3941 172.162 94.7857 171.28C94.7467 171.296 94.8637 171.233 94.9027 171.304Z" fill="#263238"/>
<path d="M102.671 327.499C100.986 327.374 57.6963 309.215 56.5029 307.523C56.453 307.424 56.4314 307.313 56.4405 307.203C56.4405 305.705 59.5605 300.511 62.1501 293.67C62.3139 293.233 77.1729 268.133 77.1729 268.133L105.471 279.778L89.4267 304.894C89.4267 304.894 102.609 318.848 103.709 320.837C104.808 322.826 104.348 327.6 102.671 327.499Z" fill="#EB9481"/>
<path d="M102.671 327.499C100.986 327.374 57.6963 309.215 56.5029 307.523C56.453 307.424 56.4314 307.313 56.4405 307.203C56.4405 306.002 58.4607 302.398 60.5979 297.476C68.3979 303.225 92.8431 318.419 97.4451 318.747C99.8709 318.919 97.8585 314.909 96.2595 312.234C99.6603 315.939 103.17 319.855 103.709 320.814C104.801 322.826 104.348 327.6 102.671 327.499Z" fill="#263238"/>
<path d="M91.9776 305.526L60.3096 292.266C60.3096 292.266 102.328 228.064 102.671 223.751C102.976 219.929 86.0496 186.42 85.5114 176.709C84.903 166.226 90.0432 158.184 95.6514 153.223L127.577 167.388C127.577 167.388 124.784 173.09 119.293 176.108C119.293 176.108 135.673 214.796 134.558 226.621C133.442 238.446 91.9776 305.526 91.9776 305.526Z" fill="#455A64"/>
<path d="M93.467 299.52C88.8884 297.484 90.23 298.007 85.667 296.018C83.4206 295.051 68.6162 288.678 66.3542 288.148C66.3074 288.148 66.2762 288.21 66.3542 288.241C68.3198 289.474 83.2334 295.581 85.5032 296.509C90.1832 298.405 88.8338 297.812 93.4904 299.629C93.4961 299.621 93.5001 299.611 93.502 299.601C93.504 299.59 93.5039 299.58 93.5017 299.57C93.4995 299.559 93.4953 299.55 93.4893 299.541C93.4834 299.533 93.4758 299.526 93.467 299.52Z" fill="#263238"/>
<path d="M124.675 175.5C121.255 176.257 117.904 177.301 114.659 178.62C114.637 178.633 114.62 178.653 114.611 178.676C114.603 178.7 114.602 178.726 114.611 178.75C114.619 178.775 114.635 178.795 114.657 178.808C114.679 178.821 114.704 178.827 114.73 178.823C118.099 177.879 121.523 177.005 124.831 175.89C124.882 175.869 124.924 175.829 124.946 175.778C124.968 175.727 124.968 175.669 124.948 175.617C124.927 175.565 124.887 175.524 124.835 175.502C124.784 175.48 124.726 175.479 124.675 175.5Z" fill="#263238"/>
<path d="M120.79 174.088C120.464 174.65 120.177 175.234 119.932 175.835C119.684 176.289 119.53 176.787 119.48 177.302C119.48 177.403 119.613 177.427 119.675 177.372C120.022 176.955 120.305 176.49 120.517 175.991C120.798 175.453 121.102 174.915 121.368 174.369C121.547 174.01 121.001 173.737 120.79 174.088Z" fill="#263238"/>
<path d="M121.228 170.999C121.438 170.5 121.649 170.001 121.867 169.502C122.086 169.003 122.351 168.472 122.538 167.942C122.538 167.864 122.702 167.942 122.663 168.004C122.46 168.511 122.32 169.049 122.156 169.564C121.992 170.079 121.813 170.602 121.633 171.124C121.298 172.091 120.892 173.043 120.463 173.971C120.996 174.004 121.529 173.916 122.023 173.714C122.527 173.401 122.922 172.941 123.154 172.396C123.451 171.834 123.724 171.257 124.028 170.703C124.394 170.099 124.707 169.465 124.964 168.808C124.964 168.722 125.12 168.808 125.089 168.862C124.624 170.263 124.02 171.614 123.287 172.895C122.983 173.394 122.725 173.909 122.171 174.096C121.559 174.262 120.918 174.297 120.292 174.197C120.214 174.197 120.12 174.197 120.143 174.08C120.479 173.043 120.822 171.998 121.228 170.999Z" fill="#263238"/>
<path d="M119.753 177.38C120.892 179.868 121.89 182.348 122.951 184.829C124.012 187.309 124.956 189.696 125.892 192.161C127.787 197.129 129.48 202.192 130.962 207.308C131.69 209.836 132.355 212.383 132.958 214.952C133.621 217.515 134.098 220.121 134.386 222.752C134.628 225.378 134.363 228.026 133.606 230.552C132.826 233.134 128.614 241.886 127.42 244.296C126.687 245.77 126.445 245.567 126.796 244.819C127.803 242.713 133.606 230.552 133.91 225.514C134.066 222.908 132.966 219.219 132.412 216.676C131.859 214.133 131.196 211.513 130.486 208.946C129.09 203.908 127.42 198.962 125.697 194.025C124.729 191.256 123.692 188.518 122.709 185.757C121.726 182.996 120.705 180.469 119.589 177.427C119.586 177.416 119.585 177.404 119.586 177.393C119.588 177.382 119.591 177.372 119.597 177.362C119.602 177.352 119.609 177.343 119.618 177.336C119.627 177.329 119.637 177.324 119.648 177.321C119.658 177.318 119.67 177.317 119.681 177.318C119.692 177.32 119.703 177.323 119.712 177.329C119.722 177.334 119.731 177.341 119.738 177.35C119.745 177.359 119.75 177.369 119.753 177.38Z" fill="#263238"/>
<path d="M95.6823 168.909C96.2595 168.706 97.0473 169.065 97.6245 169.174C98.3694 169.308 99.1225 169.391 99.8787 169.424C100.625 169.459 101.373 169.443 102.117 169.377C102.867 169.364 103.603 169.18 104.27 168.839C105.361 168.062 106.298 167.089 107.031 165.968C107.918 164.828 108.647 163.574 109.2 162.24C109.2 162.162 109.348 162.24 109.324 162.295C109.075 163.075 108.888 163.855 108.544 164.564C108.243 165.263 107.885 165.936 107.476 166.577C106.793 167.856 105.804 168.946 104.598 169.751C103.264 170.492 101.563 170.422 100.097 170.321C99.2438 170.265 98.3961 170.143 97.5621 169.954C96.9615 169.822 95.9475 169.712 95.5731 169.174C95.5604 169.15 95.5532 169.123 95.552 169.096C95.5507 169.069 95.5554 169.041 95.5659 169.016C95.5763 168.991 95.5921 168.968 95.6122 168.95C95.6323 168.931 95.6562 168.917 95.6823 168.909Z" fill="#263238"/>
<path d="M69.4663 286.322C74.7937 278.476 97.2265 239.866 102.226 231.761C103.546 229.873 104.669 227.856 105.58 225.74C106.431 223.4 105.986 221.114 105.276 218.806C103.933 214.58 102.353 210.435 100.542 206.388C98.7553 202.324 96.8287 198.315 94.9333 194.298C92.937 190.346 91.1687 186.284 89.6371 182.13C88.1705 178.218 87.9231 173.954 88.9273 169.9C90.0427 165.82 92.3905 162.17 94.8397 158.769C95.4871 157.872 96.1423 156.991 96.7897 156.094C96.8365 156.023 96.9379 156.094 96.8911 156.179C94.2001 159.721 91.5637 163.472 89.9647 167.645C89.1445 169.706 88.6726 171.888 88.5685 174.104C88.5292 176.353 88.8505 178.594 89.5201 180.742C90.7603 184.922 92.7415 188.885 94.5901 192.824C96.4387 196.763 98.4121 200.842 100.237 204.898C102.095 208.969 103.738 213.135 105.159 217.378C105.783 219.266 106.477 221.278 106.407 223.267C106.329 225.482 105.253 227.456 104.137 229.312C99.2779 237.37 76.9621 275.699 71.6581 283.522C70.9977 284.51 70.3295 285.496 69.6535 286.478C69.5599 286.595 69.4195 286.447 69.4663 286.322Z" fill="#263238"/>
<path d="M98.7165 92.1103C91.9929 97.8745 93.8649 106.275 91.0569 110.83C89.3409 113.615 83.7483 116.563 82.6407 119.777C80.8077 125.057 85.2849 126.953 84.2865 129.815C82.8669 133.887 77.4225 133.567 76.4865 140.221C75.5505 146.874 82.8201 153.941 100.183 155.86C117.546 157.778 127.093 151.414 127.717 145.774C128.341 140.135 122.561 138.255 122.163 134.074C121.914 131.375 125.478 129.503 125.665 124.55C125.853 119.597 120.985 117.983 120.322 113.779C119.659 109.574 121.882 99.3409 115.642 94.1227C109.402 88.9045 102.039 89.2633 98.7165 92.1103Z" fill="#263238"/>
<path d="M99.4965 92.2585C97.6193 93.5933 96.0894 95.3586 95.0349 97.4065C93.9465 99.5777 93.1142 101.868 92.5545 104.231C92.2607 105.641 91.808 107.012 91.2051 108.319C90.6018 109.409 89.8095 110.384 88.8651 111.197C86.9853 112.897 84.7467 114.192 83.0541 116.095C81.3615 117.998 80.2149 120.323 80.8545 122.788C81.1977 124.129 82.0869 125.221 82.6329 126.477C83.1789 127.733 83.3661 129.129 82.3443 130.112C81.4785 130.954 80.2227 131.344 79.2243 132.031C78.2524 132.708 77.3963 133.537 76.6893 134.488C75.9816 135.432 75.4777 136.513 75.2091 137.662C74.9406 138.812 74.9134 140.004 75.1293 141.164C76.1511 146.57 81.2211 149.643 85.9011 151.577L87.8667 152.357C87.9681 152.396 88.0539 152.248 87.9525 152.201C83.2725 150.103 77.8125 147.631 76.0029 142.381C75.5912 141.238 75.4475 140.015 75.5827 138.808C75.718 137.6 76.1285 136.44 76.7829 135.416C77.4476 134.402 78.2906 133.516 79.2711 132.803C80.2149 132.109 81.2991 131.68 82.2663 131.017C82.7414 130.713 83.128 130.289 83.3868 129.787C83.6457 129.286 83.7677 128.725 83.7405 128.162C83.59 126.923 83.1461 125.739 82.4457 124.706C81.7168 123.635 81.3305 122.368 81.3381 121.072C81.4786 119.81 81.9584 118.611 82.7265 117.601C84.1929 115.534 86.3535 114.176 88.2957 112.609C90.2808 111.148 91.7591 109.102 92.5233 106.759C92.8821 105.518 93.1005 104.247 93.4125 102.999C93.6954 101.837 94.0417 100.691 94.4499 99.5671C95.2185 97.3058 96.4724 95.2399 98.1237 93.5143C98.5602 93.0733 99.0412 92.6786 99.5589 92.3365C99.6135 92.3131 99.5589 92.2195 99.4965 92.2585Z" fill="#263238"/>
<path d="M128.45 141.64C128.235 140.72 127.822 139.858 127.241 139.113C126.641 138.333 125.908 137.701 125.245 136.999C124.557 136.371 124.064 135.559 123.825 134.659C123.708 133.56 123.985 132.454 124.605 131.539C125.199 130.57 125.72 129.559 126.165 128.513C126.754 126.924 126.962 125.22 126.774 123.536C126.586 121.853 126.006 120.237 125.081 118.817C124.488 117.85 123.817 116.93 123.217 115.963C122.549 114.911 122.024 113.775 121.657 112.585C120.877 109.972 120.705 107.219 120.097 104.567C119.425 101.853 118.482 99.2134 117.281 96.6887C117.281 96.6263 117.156 96.6888 117.187 96.7512C118.254 99.0303 119.08 101.414 119.652 103.865C120.206 106.205 120.432 108.545 120.83 110.885C120.995 112.039 121.28 113.174 121.68 114.27C122.091 115.282 122.595 116.253 123.185 117.172C124.355 119.083 125.572 120.978 125.892 123.24C126.216 125.472 125.826 127.749 124.777 129.745C123.864 131.469 122.585 133.372 123.38 135.392C124.059 137.108 125.72 138.13 126.773 139.55C127.342 140.326 127.74 141.214 127.942 142.155C128.143 143.096 128.144 144.069 127.943 145.01C127.015 149.869 122.14 152.279 117.577 152.521C117.552 152.528 117.53 152.542 117.514 152.563C117.499 152.583 117.49 152.608 117.49 152.634C117.49 152.66 117.499 152.685 117.514 152.706C117.53 152.726 117.552 152.741 117.577 152.747C121.54 152.701 125.853 150.953 127.717 147.241C128.594 145.512 128.853 143.536 128.45 141.64Z" fill="#263238"/>
<path d="M118.045 128.622C128.965 138.52 143.216 148.949 150.68 146.882C157.435 145.018 166.779 136.414 176.99 127.124C179.018 125.284 163.847 110.269 161.889 112.445C157.989 116.743 150.189 127.585 147.131 128.911C145.813 129.48 130.26 122.85 120.12 119.675C107.874 115.814 113.708 124.683 118.045 128.622Z" fill="#EB9481"/>
<path d="M185.195 123.591C181.638 126.204 175.835 129.722 173.207 130.135C170.734 130.525 160.212 114.59 161.787 112.562C166.678 106.236 176.475 101.642 180.975 101.829C185.476 102.016 188.877 120.9 185.195 123.591Z" fill="#EB9481"/>
<path d="M69.4193 264.194C64.8218 264.147 60.3031 262.993 56.2451 260.832L56.6195 260.146C61.2995 262.681 68.7719 264.638 75.6749 262.486C78.049 261.749 80.2448 260.528 82.1241 258.901C84.0035 257.274 85.5257 255.276 86.5949 253.032C91.3217 243.836 101.914 205.803 108.24 183.082C111.82 170.219 113.56 164.011 113.957 163.449C115.276 161.561 186.178 99.138 187.613 98.5998C189.048 98.0616 397.519 42.8376 406.387 40.4898L406.59 41.2698C404.422 41.847 189.844 98.6778 187.886 99.3564C185.944 100.378 116.056 161.944 114.566 163.925C114.199 164.533 111.773 173.238 108.965 183.316C102.179 207.527 92.0393 244.14 87.2345 253.406C84.6683 258.398 80.8463 261.713 75.8699 263.25C73.7788 263.884 71.6045 264.203 69.4193 264.194Z" fill="#263238"/>
<path d="M173.995 102.96C173.105 105.113 176.163 104.933 176.163 104.933C176.163 104.933 171.818 106.259 171.756 108.833C171.694 111.407 175.391 110.971 175.656 110.955C175.422 111.025 171.467 112.343 171.678 114.949C171.889 117.554 175.531 116.665 175.765 116.602C175.57 116.735 173.027 118.576 173.628 120.502C174.673 123.841 181.311 119.317 184.064 119.964C184.064 119.964 184.915 123.653 184.93 123.794C184.93 123.794 189.922 120.728 190.585 116.961C190.691 116.416 190.607 115.851 190.347 115.36C190.088 114.869 189.668 114.482 189.158 114.262C189.158 114.262 191.365 113.147 191.272 111.088C191.217 110.035 189.485 109.184 189.485 109.184C189.977 108.908 190.383 108.501 190.659 108.008C190.934 107.515 191.068 106.956 191.045 106.392C190.889 104.933 189.173 104.309 189.173 104.309C189.173 104.309 190.414 102.601 189.774 101.189C188.464 98.28 175.921 98.28 173.995 102.96Z" fill="#EB9481"/>
<path d="M189.539 109.153C189.586 109.153 189.594 109.075 189.539 109.067C184.8 107.959 179.82 108.582 175.499 110.822C175.351 110.9 175.304 111.127 175.499 111.041C178.495 109.66 185.507 108.818 189.539 109.153Z" fill="#263238"/>
<path d="M175.5 116.86C179.743 114.707 184.243 114.13 188.955 114.208C189.017 114.208 189.017 114.122 188.955 114.106C186.661 113.443 183.651 113.708 181.326 114.106C179.161 114.436 177.121 115.332 175.414 116.704C175.375 116.766 175.429 116.906 175.5 116.86Z" fill="#263238"/>
<path d="M176.163 104.91C175.346 105.238 174.563 105.643 173.823 106.119C173.095 106.549 172.492 107.162 172.076 107.897C171.9 108.245 171.861 108.646 171.966 109.021C172.082 109.397 172.288 109.74 172.567 110.019C172.872 110.267 173.224 110.449 173.603 110.554C173.982 110.659 174.378 110.684 174.767 110.627L176.67 110.417L174.954 111.275C174.187 111.647 173.486 112.142 172.879 112.741C172.581 113.002 172.342 113.324 172.178 113.684C172.014 114.044 171.929 114.436 171.927 114.832C171.921 115.201 172.047 115.561 172.281 115.846C172.515 116.132 172.843 116.325 173.207 116.392C174.013 116.542 174.845 116.486 175.625 116.228L177.801 115.58L175.968 116.899C175.451 117.26 174.987 117.69 174.587 118.178C174.177 118.608 173.906 119.152 173.807 119.738C173.778 120.004 173.824 120.273 173.94 120.514C174.056 120.755 174.237 120.959 174.462 121.103C175.018 121.349 175.632 121.433 176.233 121.345C177.538 121.174 178.826 120.897 180.086 120.518C180.726 120.354 181.373 120.182 182.028 120.042C182.677 119.868 183.355 119.834 184.017 119.941C183.358 119.905 182.698 120 182.075 120.221C181.436 120.409 180.812 120.627 180.18 120.838C178.917 121.314 177.611 121.667 176.28 121.891C175.561 122.03 174.818 121.954 174.143 121.672C173.794 121.477 173.51 121.186 173.323 120.833C173.136 120.48 173.055 120.081 173.09 119.683C173.182 118.948 173.488 118.256 173.971 117.694C174.41 117.149 174.919 116.664 175.484 116.251L175.827 116.922C174.909 117.244 173.923 117.322 172.965 117.148C172.437 117.032 171.966 116.737 171.631 116.314C171.312 115.889 171.133 115.377 171.116 114.847C171.118 114.346 171.225 113.852 171.433 113.396C171.64 112.94 171.941 112.533 172.317 112.203C172.995 111.561 173.772 111.034 174.618 110.643L174.806 111.29C174.323 111.348 173.833 111.298 173.372 111.144C172.911 110.99 172.49 110.737 172.138 110.401C171.807 110.046 171.573 109.61 171.459 109.138C171.347 108.655 171.413 108.148 171.647 107.71C172.138 106.935 172.834 106.311 173.659 105.908C174.453 105.482 175.293 105.147 176.163 104.91Z" fill="#263238"/>
<path d="M163.083 111.041C163.083 111.041 173.761 93.756 178.238 100.565C179.572 102.586 182.629 112.484 180.656 113.131C178.105 113.974 176.062 110.081 175.196 107.437C175.196 107.437 172.731 113.381 168.082 112.897C166.288 112.701 164.57 112.063 163.083 111.041Z" fill="#EB9481"/>
<path d="M177.839 100.019C178.456 100.751 178.963 101.568 179.345 102.445C179.742 103.315 180.086 104.209 180.374 105.121C180.965 106.945 181.398 108.816 181.669 110.713C181.74 111.218 181.74 111.73 181.669 112.234C181.621 112.514 181.512 112.781 181.349 113.014C181.264 113.151 181.153 113.271 181.022 113.365C180.893 113.459 180.751 113.533 180.601 113.584C180.052 113.752 179.46 113.722 178.931 113.498C178.452 113.281 178.014 112.982 177.637 112.616C176.94 111.911 176.368 111.094 175.944 110.198C175.518 109.33 175.153 108.434 174.852 107.515H175.476C175.172 108.184 174.803 108.821 174.376 109.418C173.963 110.018 173.487 110.573 172.957 111.072C172.421 111.565 171.817 111.977 171.163 112.297C170.514 112.616 169.809 112.807 169.088 112.858C169.782 112.709 170.446 112.445 171.053 112.078C171.647 111.711 172.187 111.265 172.66 110.752C173.137 110.279 173.566 109.759 173.939 109.2C174.304 108.613 174.615 107.995 174.868 107.351L175.172 106.571L175.492 107.351C175.81 108.225 176.185 109.077 176.615 109.902C177.015 110.711 177.542 111.451 178.175 112.094C178.438 112.399 178.774 112.631 179.153 112.767C179.531 112.904 179.939 112.941 180.335 112.874C180.959 112.718 180.991 111.68 180.913 110.791C180.835 109.902 180.663 108.95 180.491 108.03C180.32 107.11 180.125 106.181 179.883 105.269C179.479 103.423 178.79 101.652 177.839 100.019Z" fill="#263238"/>
<path d="M136.102 143.918L141.96 126.968C141.96 126.968 127.616 120.409 119.402 118.646C111.189 116.883 109.2 120.346 116.524 127.92C123.848 135.494 136.102 143.918 136.102 143.918Z" fill="#FFC727"/>
<path d="M138.98 126.563C137.935 128.755 137.085 131.056 136.235 133.333C135.384 135.611 134.612 137.873 133.949 140.189C133.949 140.228 134.012 140.26 134.027 140.189C134.963 137.943 135.829 135.665 136.664 133.38C137.498 131.095 138.364 128.872 139.066 126.571C139.082 126.547 139.004 126.516 138.98 126.563Z" fill="#263238"/>
<path opacity="0.1" d="M139.12 135.221L136.102 143.918C136.102 143.918 123.871 135.431 116.524 127.889C113.989 125.291 112.577 123.209 112.148 121.594L139.12 135.221Z" fill="black"/>
<path d="M128.13 167.903L86.8838 160.75C86.8838 160.75 96.8678 131.524 105.604 121.048C109.878 115.908 116.173 117.998 118.747 120.229C119.566 120.939 127.608 132.046 128.403 136.664C129.09 140.751 126.305 145.111 126.305 145.111L128.13 167.903Z" fill="#FFC727"/>
<path d="M124.324 145.135C122.782 144.975 121.233 144.905 119.683 144.924C118.903 144.924 118.123 144.986 117.343 145.064L116.235 145.189C115.83 145.244 115.455 145.353 115.026 145.392C114.987 145.392 114.987 145.47 115.026 145.462C115.409 145.462 115.806 145.462 116.181 145.462H117.335L119.675 145.408C121.235 145.353 122.795 145.314 124.308 145.306C124.41 145.259 124.402 145.142 124.324 145.135Z" fill="#263238"/>
<path d="M100.94 123.661C85.1916 136.921 70.1532 166.46 76.6038 170.118C82.4928 173.456 102.383 173.238 110.666 172.208C113.1 171.904 110.393 153.013 107.788 153.332C104.668 153.715 96.6888 153.956 96.3768 153.902C95.706 153.777 105.667 133.06 108.857 125.44C113.287 114.824 106.86 118.685 100.94 123.661Z" fill="#EB9481"/>
<path d="M132.67 151.858C132.914 152.402 132.986 153.007 132.876 153.593C132.766 154.179 132.479 154.716 132.054 155.134C132.92 155.675 133.569 156.504 133.887 157.474C134.371 159.19 131.89 160.703 131.89 160.703C132.675 161.44 133.219 162.397 133.45 163.449C133.747 165.142 131.461 167.021 131.461 167.021C131.802 168.095 131.744 169.255 131.297 170.29C129.995 173.004 125.432 173.511 122.53 173.87C119.629 174.229 111.08 172.513 109.418 172.357L106.977 153.769C106.977 153.769 119.527 148.481 122.99 148.543C125.9 148.574 131.656 149.815 132.67 151.858Z" fill="#EB9481"/>
<path d="M131.89 154.853C128.77 154.073 125.65 154.198 122.475 154.175C122.461 154.175 122.447 154.181 122.436 154.191C122.426 154.201 122.42 154.215 122.42 154.229C122.42 154.244 122.426 154.258 122.436 154.268C122.447 154.278 122.461 154.284 122.475 154.284C125.595 154.284 128.715 154.885 131.835 155.002C131.855 155.009 131.876 155.008 131.895 154.999C131.914 154.99 131.929 154.974 131.936 154.955C131.944 154.935 131.943 154.913 131.934 154.894C131.925 154.875 131.909 154.861 131.89 154.853Z" fill="#263238"/>
<path d="M131.82 160.438C131.1 160.326 130.368 160.308 129.644 160.384C128.864 160.384 128.084 160.462 127.304 160.516C125.744 160.633 124.223 160.781 122.694 160.976C122.624 160.976 122.624 161.093 122.694 161.086C124.254 160.976 125.767 160.883 127.304 160.836L129.644 160.781C130.37 160.83 131.101 160.796 131.82 160.68C131.852 160.68 131.883 160.667 131.905 160.645C131.928 160.622 131.941 160.591 131.941 160.559C131.941 160.527 131.928 160.496 131.905 160.474C131.883 160.451 131.852 160.438 131.82 160.438Z" fill="#263238"/>
<path d="M131.383 166.998C130.73 166.904 130.066 166.92 129.418 167.045L127.319 167.24C125.915 167.357 124.511 167.474 123.1 167.544C123.085 167.544 123.071 167.55 123.061 167.56C123.051 167.57 123.045 167.584 123.045 167.599C123.045 167.613 123.051 167.627 123.061 167.637C123.071 167.647 123.085 167.653 123.1 167.653C124.535 167.591 125.962 167.544 127.39 167.466L129.496 167.341C130.139 167.364 130.781 167.272 131.391 167.068L131.383 166.998Z" fill="#263238"/>
<path d="M84.0215 140.439L100.511 147.521C100.511 147.521 108.069 133.684 110.424 125.619C112.78 117.554 109.457 115.261 101.408 122.054C93.3581 128.848 84.0215 140.439 84.0215 140.439Z" fill="#FFC727"/>
<path d="M101.096 143.988C98.9821 142.795 96.7513 141.773 94.5439 140.767C92.3365 139.76 90.1291 138.824 87.8671 137.998C87.8568 137.998 87.8469 138.002 87.8396 138.009C87.8322 138.016 87.8281 138.026 87.8281 138.037C87.8281 138.047 87.8322 138.057 87.8396 138.064C87.8469 138.071 87.8568 138.076 87.8671 138.076C90.0355 139.168 92.2429 140.197 94.4659 141.196C96.6889 142.194 98.8495 143.208 101.088 144.074C101.104 144.089 101.135 144.019 101.096 143.988Z" fill="#263238"/>
<path d="M108.264 131.68C107.203 134.433 106.002 137.14 104.738 139.768C104.098 141.094 103.443 142.412 102.757 143.715C102.07 145.018 101.368 146.312 100.581 147.56V147.631H100.518C100.12 147.436 99.7381 147.241 99.3481 147.038L100.581 147.475L100.471 147.514L102.343 143.52L104.254 139.55C104.902 138.232 105.549 136.913 106.228 135.611C106.906 134.308 107.538 132.967 108.264 131.68Z" fill="#263238"/>
<path d="M105.144 138.31C105.471 137.596 105.859 136.912 106.306 136.266C106.743 135.616 107.239 135.007 107.788 134.449C107.469 135.169 107.08 135.856 106.626 136.5C106.189 137.148 105.692 137.753 105.144 138.31Z" fill="#263238"/>
<path d="M108.662 120.463C109.044 121.095 113.802 124.441 116.875 123.248C117.881 122.858 115.994 117.296 115.994 117.296L115.947 116.852L115.315 110.659L107.086 108.576L105.916 108.326C105.916 108.326 106.205 110.011 106.579 112.102C106.579 112.203 106.618 112.297 106.634 112.406C106.649 112.515 106.634 112.632 106.688 112.741C106.743 113.061 106.797 113.381 106.86 113.693C106.922 114.005 106.946 114.169 107.008 114.426C107.07 114.683 107.109 114.925 107.164 115.206C107.54 116.991 108.041 118.748 108.662 120.463Z" fill="#EB9481"/>
<path d="M106.579 112.102C107.701 113.526 109.119 114.688 110.735 115.509C112.352 116.329 114.127 116.787 115.939 116.852L115.307 110.659L107.078 108.576L105.908 108.326C105.908 108.326 106.205 109.98 106.579 112.102Z" fill="#263238"/>
<path d="M120.978 98.4126C125.603 108.319 120.198 112.211 118.053 113.233C116.111 114.137 109.395 116.961 103.771 107.585C98.1474 98.2098 101.299 92.9292 105.628 90.636C109.957 88.3428 116.36 88.5066 120.978 98.4126Z" fill="#EB9481"/>
<path d="M116.891 96.252C116.649 96.33 116.407 96.369 116.157 96.4236C115.904 96.5075 115.631 96.5075 115.377 96.4236C115.303 96.3831 115.243 96.3193 115.208 96.2419C115.173 96.1644 115.164 96.0776 115.182 95.9946C115.244 95.8314 115.35 95.6884 115.487 95.5811C115.625 95.4738 115.789 95.4063 115.962 95.3862C116.298 95.2822 116.661 95.3101 116.976 95.4642C117.059 95.4987 117.127 95.5588 117.173 95.6355C117.218 95.7122 117.237 95.8015 117.227 95.8901C117.218 95.9786 117.18 96.0617 117.119 96.1269C117.058 96.1921 116.978 96.236 116.891 96.252Z" fill="#263238"/>
<path d="M111.61 101.252C111.849 101.174 112.083 101.083 112.312 100.979C112.574 100.917 112.808 100.769 112.975 100.558C113.017 100.482 113.032 100.395 113.017 100.31C113.003 100.225 112.961 100.147 112.897 100.09C112.755 99.9936 112.589 99.9372 112.418 99.9262C112.247 99.9153 112.075 99.9501 111.922 100.027C111.591 100.135 111.313 100.363 111.142 100.667C111.107 100.737 111.093 100.816 111.102 100.894C111.11 100.973 111.141 101.047 111.19 101.108C111.239 101.17 111.304 101.216 111.379 101.241C111.453 101.267 111.534 101.27 111.61 101.252Z" fill="#263238"/>
<path d="M113.724 101.813C113.724 101.813 113.685 101.868 113.724 101.899C114.075 102.554 114.371 103.366 113.872 103.888C114.558 103.451 114.161 102.383 113.724 101.813Z" fill="#263238"/>
<path d="M112.78 101.4C111.672 101.852 112.655 104.044 113.685 103.623C114.714 103.202 113.716 101.033 112.78 101.4Z" fill="#263238"/>
<path d="M112.405 101.72C112.265 101.93 112.179 102.235 111.961 102.359C111.742 102.484 111.399 102.359 111.126 102.227C111.126 102.227 111.087 102.227 111.126 102.266C111.313 102.695 111.664 103.046 112.148 102.913C112.349 102.821 112.509 102.657 112.597 102.454C112.684 102.251 112.694 102.023 112.624 101.813C112.577 101.72 112.46 101.642 112.405 101.72Z" fill="#263238"/>
<path d="M117.351 99.8401C117.351 99.8401 117.413 99.8401 117.429 99.8401C117.702 100.526 118.138 101.275 118.856 101.228V101.267C118.068 101.525 117.499 100.526 117.351 99.8401Z" fill="#263238"/>
<path d="M117.647 98.8494C118.708 98.2878 119.753 100.409 118.778 100.971C117.803 101.533 116.758 99.3252 117.647 98.8494Z" fill="#263238"/>
<path d="M118.162 98.7714C118.388 98.7714 118.661 98.9352 118.872 98.8494C119.082 98.7636 119.176 98.4282 119.223 98.1318C119.223 98.1318 119.223 98.1318 119.262 98.1318C119.472 98.5374 119.55 99.0366 119.192 99.3018C118.833 99.567 118.412 99.3018 118.131 98.9664C118.068 98.904 118.076 98.7636 118.162 98.7714Z" fill="#263238"/>
<path d="M116.064 107.367C116.296 107.514 116.572 107.575 116.844 107.539C117.099 107.433 117.328 107.274 117.515 107.071C117.515 107.071 117.569 107.071 117.562 107.071C117.515 107.246 117.423 107.406 117.294 107.533C117.165 107.661 117.004 107.752 116.828 107.796C116.673 107.815 116.516 107.788 116.377 107.717C116.238 107.646 116.124 107.535 116.048 107.398C115.986 107.383 116.033 107.351 116.064 107.367Z" fill="#263238"/>
<path d="M117.78 103.615C117.78 103.615 118.38 104.559 118.607 105.035C118.607 105.082 118.521 105.152 118.365 105.238C117.991 105.503 117.551 105.659 117.094 105.689C116.637 105.719 116.181 105.623 115.775 105.409C115.721 105.409 115.775 105.308 115.822 105.316C116.621 105.45 117.442 105.321 118.162 104.949C118.162 104.801 117.062 103.389 117.14 103.327C117.525 103.19 117.926 103.103 118.334 103.069C117.125 101.065 115.611 99.2706 114.434 97.2582C114.425 97.2436 114.422 97.2264 114.426 97.2099C114.429 97.1934 114.438 97.1786 114.451 97.1682C114.464 97.1578 114.481 97.1525 114.498 97.1533C114.515 97.154 114.531 97.1608 114.543 97.1724C116.228 99.0472 117.723 101.085 119.004 103.256C119.137 103.514 117.99 103.607 117.78 103.615Z" fill="#263238"/>
<path d="M117.982 105.3C117.87 105.767 117.639 106.197 117.312 106.548C117.131 106.733 116.896 106.856 116.641 106.899C116.079 106.993 115.861 106.54 115.775 106.119C115.732 105.885 115.717 105.647 115.728 105.409C116.472 105.613 117.262 105.575 117.982 105.3Z" fill="#263238"/>
<path d="M117.312 106.509C117.131 106.694 116.896 106.817 116.641 106.86C116.08 106.954 115.861 106.501 115.775 106.08C116.042 105.967 116.34 105.948 116.619 106.026C116.898 106.104 117.142 106.274 117.312 106.509Z" fill="#FF9CBD"/>
<path d="M104.855 108.092C107.195 106.743 104.075 98.9352 103.654 97.9524C103.935 98.5452 105.448 101.65 105.745 101.65C106.005 101.514 106.237 101.331 106.431 101.111C106.24 100.742 106.079 100.359 105.947 99.9648C105.877 99.7854 106.205 100.3 106.642 100.916L107.024 100.558C106.589 99.7882 106.259 98.9646 106.041 98.1084C105.963 97.7808 106.72 99.0444 107.601 100.035C109.353 98.3522 111.286 96.8689 113.365 95.6124C113.958 95.277 114.481 95.0118 114.925 94.8324C114.449 93.9198 113.849 93.015 114.02 93.1866C114.486 93.6383 114.907 94.1347 115.276 94.6686C115.534 94.5516 115.775 94.4502 115.994 94.3644C115.385 93.054 113.716 91.3302 114.083 91.533C115.189 92.1814 116.166 93.0305 116.961 94.0368C117.92 93.756 118.248 93.795 118.154 93.561C117.502 92.2733 116.601 91.1278 115.503 90.1906C114.405 89.2534 113.132 88.5431 111.758 88.101C107.242 86.8296 100.534 89.7702 99.4188 95.901C99.4188 95.901 96.5718 100.23 97.6716 103.405C98.7714 106.579 103.483 108.872 104.855 108.092Z" fill="#263238"/>
<path d="M105.698 107.585C105.698 107.585 102.289 105.199 101.127 106.525C99.9646 107.851 103.342 111.883 105.284 111.899C105.533 111.918 105.784 111.886 106.02 111.806C106.257 111.725 106.475 111.598 106.661 111.431C106.847 111.264 106.997 111.061 107.102 110.834C107.207 110.608 107.265 110.362 107.273 110.113L105.698 107.585Z" fill="#EB9481"/>
<path d="M102.125 107.64V107.687C102.773 107.761 103.399 107.97 103.962 108.301C104.525 108.631 105.012 109.076 105.393 109.606C105.279 109.506 105.144 109.433 104.998 109.392C104.853 109.351 104.7 109.343 104.55 109.368C104.401 109.394 104.259 109.452 104.135 109.539C104.011 109.626 103.908 109.739 103.833 109.871C103.833 109.871 103.833 109.941 103.888 109.925C104.072 109.779 104.298 109.694 104.533 109.683C104.768 109.672 105.001 109.735 105.198 109.863C105.531 110.088 105.837 110.349 106.111 110.643C106.204 110.729 106.376 110.604 106.29 110.495C105.783 108.911 103.818 107.211 102.125 107.64Z" fill="#263238"/>
<path d="M116.048 117.296L115.331 122.632L107.749 118.03L106.54 120.432C106.54 120.432 114.909 128.677 114.831 128.232L115.767 123.552L119.387 125.728L117.304 118.49L116.048 117.296Z" fill="#EBEBEB"/>
<path d="M118.559 122.086C118.177 120.9 117.818 119.699 117.382 118.537C117.382 118.49 117.296 118.49 117.296 118.537C117.35 119.761 118.856 124.277 119.121 125.377C118.965 125.284 115.798 123.497 115.783 123.544C115.517 124.324 114.823 127.733 114.792 128.029C113.474 126.719 107.967 121.625 106.493 120.44C106.484 120.436 106.474 120.434 106.465 120.436C106.455 120.438 106.446 120.442 106.439 120.449C106.433 120.456 106.428 120.465 106.426 120.474C106.425 120.484 106.426 120.494 106.43 120.502C107.671 121.93 114.823 128.677 114.893 128.638C115.299 127.007 115.622 125.356 115.861 123.692C117.072 124.558 118.341 125.339 119.659 126.032C119.361 124.699 118.994 123.381 118.559 122.086Z" fill="#263238"/>
<path d="M128.7 89.7C127.554 87.9978 126.936 85.9956 126.922 83.9436C126.922 76.6584 134.917 70.7538 144.784 70.7538C154.651 70.7538 162.638 76.6584 162.638 83.9436C162.638 91.2288 154.643 97.1412 144.784 97.1412C140.4 97.2103 136.099 95.9365 132.46 93.4908L126.306 95.0508L128.7 89.7Z" fill="#FFC727"/>
<path d="M151.218 83.9592C151.217 84.3267 151.324 84.6864 151.527 84.9927C151.73 85.299 152.02 85.5381 152.359 85.6798C152.698 85.8215 153.071 85.8594 153.432 85.7887C153.793 85.7179 154.124 85.5417 154.385 85.2824C154.645 85.0231 154.823 84.6924 154.895 84.332C154.967 83.9717 154.931 83.5981 154.791 83.2584C154.65 82.9187 154.412 82.6283 154.107 82.424C153.801 82.2197 153.442 82.1106 153.075 82.1106C152.584 82.1126 152.114 82.3078 151.767 82.6538C151.42 82.9998 151.222 83.4688 151.218 83.9592Z" fill="#263238"/>
<path d="M144.799 85.8078C145.82 85.8078 146.647 84.9802 146.647 83.9592C146.647 82.9382 145.82 82.1106 144.799 82.1106C143.778 82.1106 142.95 82.9382 142.95 83.9592C142.95 84.9802 143.778 85.8078 144.799 85.8078Z" fill="#263238"/>
<path d="M136.516 85.8078C137.537 85.8078 138.364 84.9802 138.364 83.9592C138.364 82.9382 137.537 82.1106 136.516 82.1106C135.495 82.1106 134.667 82.9382 134.667 83.9592C134.667 84.9802 135.495 85.8078 136.516 85.8078Z" fill="#263238"/>
<path d="M248.469 302.882L185.53 314.262C151.686 319.925 111.282 321.5 52.7432 315.502L116.009 304.925C167.185 309.153 214.624 308.537 248.469 302.882Z" fill="#FFC727"/>
<path d="M252.392 323.443L184.86 334.558C207.807 330.72 231.769 324.121 248.726 315.775C342.794 270.293 382.348 112.765 382.886 111.267H458.64C458.078 112.765 449.155 138.567 411.38 210.514C388.019 253.274 353.488 284.77 311.984 305.198C295.012 313.56 275.34 319.605 252.392 323.443Z" fill="#FFC727"/>
<g opacity="0.3">
<path d="M252.392 323.443L184.86 334.558C207.807 330.72 231.769 324.121 248.726 315.775C342.794 270.293 382.348 112.765 382.886 111.267H458.64C458.078 112.765 449.155 138.567 411.38 210.514C388.019 253.274 353.488 284.77 311.984 305.198C295.012 313.56 275.34 319.605 252.392 323.443Z" fill="white"/>
</g>
<path d="M365.297 103.366L382.894 111.267C382.325 112.765 345.064 267.61 248.734 315.775C190.008 345.134 139.783 343.372 53.3828 336.235L52.7744 315.502C136.71 322.436 201.115 317.359 241.277 296.338C331.874 248.898 365.165 103.74 365.297 103.366Z" fill="#FFC727"/>
<g opacity="0.1">
<path d="M365.297 103.366L382.894 111.267C382.325 112.765 345.064 267.61 248.734 315.775C190.008 345.134 139.783 343.372 53.3828 336.235L52.7744 315.502C136.71 322.436 201.115 317.359 241.277 296.338C331.874 248.898 365.165 103.74 365.297 103.366Z" fill="black"/>
</g>
<path d="M365.297 103.366H446.924L458.624 111.267H382.894L365.297 103.366Z" fill="#FFC727"/>
<path d="M427.464 52.6265L480.543 119.964L355.454 119.629L427.464 52.6265Z" fill="#FFC727"/>
<g opacity="0.3">
<path d="M427.464 52.6265L480.543 119.964L355.454 119.629L427.464 52.6265Z" fill="white"/>
</g>
<path d="M355.454 119.629L333.941 103.124L405.951 36.1218L427.463 52.6266L355.454 119.629Z" fill="#FFC727"/>
<g opacity="0.1">
<path d="M355.454 119.629L333.941 103.124L405.951 36.1218L427.463 52.6266L355.454 119.629Z" fill="black"/>
</g>
<path d="M389.703 338.224C391.263 338.731 435.723 338.153 437.385 337.054C438.024 336.648 438.321 330.166 438.453 322.327V322.078C438.453 320.463 434.35 293.366 434.35 293.366L404.617 293.662L409.773 322.132V322.616C409.773 322.616 392.854 330.416 391.138 331.851C389.422 333.286 388.143 337.74 389.703 338.224Z" fill="#AD6359"/>
<path d="M389.695 338.224C390.475 338.481 402.573 338.45 414.375 338.224C416.715 338.177 419.109 338.122 421.395 338.06C429.811 337.826 436.761 337.483 437.408 337.061C438.055 336.64 438.344 330.353 438.469 322.663C438.469 322.553 438.469 322.444 438.469 322.335C438.469 322.226 438.469 322.163 438.469 322.085L409.819 322.14V322.624C409.819 322.624 392.901 330.424 391.193 331.851C389.485 333.278 388.143 337.74 389.695 338.224Z" fill="#A6A6A6"/>
<path d="M390.187 336.492C397.675 336.211 427.908 335.79 435.333 336.079C435.396 336.079 435.396 336.125 435.333 336.125C427.915 336.57 397.675 336.749 390.187 336.617C390 336.617 390 336.5 390.187 336.492Z" fill="#263238"/>
<path d="M406.583 322.257C409.523 321.664 413.135 322.07 415.42 324.145C415.506 324.223 415.42 324.347 415.295 324.316C412.464 323.448 409.549 322.883 406.598 322.631C406.549 322.634 406.5 322.616 406.464 322.582C406.427 322.548 406.406 322.502 406.403 322.452C406.401 322.402 406.419 322.354 406.453 322.317C406.486 322.281 406.533 322.259 406.583 322.257Z" fill="#263238"/>
<path d="M404.477 323.567C407.417 322.975 411.029 323.38 413.306 325.455C413.392 325.533 413.306 325.658 413.181 325.627C410.353 324.759 407.44 324.191 404.492 323.934C404.45 323.927 404.411 323.906 404.382 323.874C404.353 323.841 404.336 323.8 404.335 323.757C404.333 323.714 404.346 323.671 404.372 323.637C404.398 323.602 404.435 323.578 404.477 323.567Z" fill="#263238"/>
<path d="M402.363 324.878C405.304 324.285 408.915 324.691 411.193 326.765C411.286 326.843 411.193 326.968 411.076 326.937C408.244 326.075 405.328 325.513 402.379 325.26C402.328 325.262 402.279 325.244 402.241 325.21C402.204 325.175 402.182 325.127 402.18 325.077C402.178 325.026 402.196 324.977 402.23 324.939C402.265 324.902 402.312 324.88 402.363 324.878Z" fill="#263238"/>
<path d="M409.188 322.234H439.397C439.397 322.234 429.257 258.578 429.53 257.275C429.663 256.604 468.585 187.746 468.585 187.746H434.46C434.46 187.746 402.846 236.995 398.509 249.366C395.335 258.414 409.188 322.234 409.188 322.234Z" fill="#263238"/>
<path d="M408.455 316.368C410.28 316.22 412.097 316.072 413.915 315.994C415.732 315.916 417.55 315.892 419.375 315.853C423.01 315.775 426.645 315.728 430.295 315.682C431.332 315.682 432.37 315.682 433.415 315.682C434.46 315.682 435.505 315.791 436.535 315.682C436.613 315.682 436.613 315.799 436.535 315.799C435.622 315.799 434.71 315.994 433.805 316.056C432.9 316.118 431.988 316.212 431.075 316.274C429.258 316.391 427.44 316.477 425.615 316.555C421.98 316.711 418.345 316.75 414.695 316.774C412.612 316.774 410.545 316.625 408.455 316.477C408.441 316.463 408.433 316.443 408.433 316.423C408.433 316.402 408.441 316.383 408.455 316.368Z" fill="#455A64"/>
<path d="M425.427 254.717C426.021 252.833 426.891 251.049 428.009 249.421C430.292 245.645 432.572 241.87 434.85 238.095C439.473 230.441 444.119 222.799 448.788 215.171C451.128 211.396 453.468 207.636 455.754 203.869C457.899 200.39 462.774 191.084 463.32 190.187C463.32 190.117 463.468 190.148 463.429 190.187C461.869 193.463 459.818 197.558 457.899 200.975C455.785 204.727 453.523 208.4 451.331 212.105C446.831 219.726 442.26 227.261 437.697 234.78C435.398 238.592 433.092 242.401 430.778 246.207C429.671 248.032 428.524 249.85 427.455 251.667C426.358 253.435 425.78 255.475 425.786 257.556C425.907 259.733 426.141 261.901 426.488 264.053C426.777 266.23 427.058 268.398 427.354 270.574C427.942 274.921 428.553 279.261 429.187 283.592C430.456 292.313 431.779 301.023 433.157 309.722C433.329 310.807 433.508 311.883 433.68 312.967C433.68 313.069 433.539 313.108 433.524 313.006C431.964 304.301 430.451 295.597 429.132 286.853C427.814 278.109 426.613 269.342 425.451 260.575C425.08 258.64 425.072 256.654 425.427 254.717Z" fill="#455A64"/>
<path d="M534.776 340.642C533.216 341.125 488.756 340.096 487.11 338.98C486.47 338.567 486.244 332.085 486.197 324.238V323.997C486.197 322.382 474.419 295.222 474.419 295.222L503.467 295.815L514.87 324.34V324.831C514.87 324.831 531.703 332.826 533.411 334.246C535.119 335.665 536.344 340.158 534.776 340.642Z" fill="#AD6359"/>
<path d="M534.776 340.642C533.216 341.125 488.756 340.096 487.11 338.98C486.47 338.567 486.244 332.085 486.197 324.238V323.996C486.197 323.996 484.208 318.536 484.201 318.326L512.881 318.833L514.87 324.34V324.831C514.87 324.831 531.703 332.826 533.411 334.246C535.119 335.665 536.344 340.158 534.776 340.642Z" fill="#EBEBEB"/>
<path d="M534.776 340.642C533.216 341.125 488.756 340.096 487.11 338.98C486.47 338.567 486.244 332.085 486.197 324.238V323.996L514.87 324.34V324.831C514.87 324.831 531.702 332.826 533.411 334.246C535.119 335.665 536.343 340.158 534.776 340.642Z" fill="#A6A6A6"/>
<path d="M534.3 338.902C526.812 338.543 496.587 337.81 489.154 338.029C489.099 338.029 489.099 338.068 489.154 338.075C496.572 338.59 526.804 339.082 534.3 339.027C534.472 339.027 534.472 338.91 534.3 338.902Z" fill="#263238"/>
<path d="M518.06 324.48C515.128 323.864 511.508 324.23 509.207 326.282C509.122 326.36 509.207 326.485 509.332 326.453C512.169 325.613 515.087 325.077 518.037 324.854C518.087 324.857 518.136 324.841 518.173 324.808C518.21 324.775 518.233 324.729 518.236 324.679C518.239 324.629 518.222 324.58 518.189 324.543C518.157 324.506 518.11 324.483 518.06 324.48Z" fill="#263238"/>
<path d="M520.159 325.829C517.226 325.213 513.607 325.58 511.306 327.623C511.22 327.709 511.306 327.834 511.43 327.803C514.266 326.958 517.185 326.422 520.135 326.204C520.185 326.207 520.234 326.19 520.271 326.157C520.308 326.124 520.331 326.078 520.334 326.028C520.337 325.979 520.32 325.93 520.288 325.893C520.255 325.855 520.208 325.833 520.159 325.829Z" fill="#263238"/>
<path d="M522.257 327.163C519.324 326.539 515.705 326.914 513.404 328.957C513.318 329.035 513.404 329.16 513.529 329.137C516.365 328.293 519.283 327.755 522.233 327.53C522.276 327.524 522.316 327.504 522.346 327.472C522.375 327.44 522.393 327.399 522.396 327.356C522.399 327.313 522.386 327.27 522.361 327.235C522.335 327.2 522.299 327.174 522.257 327.163Z" fill="#263238"/>
<path d="M438.024 187.746C438.024 187.746 442.119 212.706 442.392 213.486C442.392 213.486 443.952 214.211 446.659 215.475L479.801 324.722L516.461 324.847L472.953 187.746H438.024Z" fill="#263238"/>
<path d="M441.066 212.722C444.249 214.051 447.31 215.653 450.216 217.511C450.234 217.527 450.247 217.549 450.251 217.574C450.256 217.598 450.252 217.623 450.24 217.645C450.228 217.667 450.209 217.684 450.186 217.693C450.164 217.703 450.138 217.705 450.115 217.698C446.995 216.2 443.874 214.757 440.879 213.088C440.831 213.063 440.794 213.02 440.777 212.968C440.76 212.916 440.765 212.86 440.79 212.811C440.814 212.763 440.858 212.726 440.909 212.709C440.961 212.692 441.018 212.697 441.066 212.722Z" fill="#455A64"/>
<path d="M442.26 198.432C442.759 201.419 443.04 204.446 443.375 207.457C443.461 208.174 443.547 208.9 443.625 209.617C443.644 210.283 443.821 210.935 444.14 211.52C444.787 212.527 445.949 212.995 447.002 213.455C447.127 213.509 447.08 213.704 446.94 213.658C445.808 213.383 444.763 212.83 443.898 212.051C442.939 211.037 442.97 209.5 442.822 208.19C442.397 204.959 442.162 201.706 442.12 198.448C442.118 198.429 442.123 198.41 442.135 198.396C442.146 198.381 442.163 198.372 442.182 198.37C442.201 198.368 442.219 198.373 442.234 198.385C442.249 198.396 442.258 198.413 442.26 198.432Z" fill="#455A64"/>
<path d="M445.871 199.345C445.981 201.497 446.215 203.65 446.394 205.795C446.488 206.848 446.558 207.909 446.628 208.97C446.698 210.031 446.815 211.154 446.784 212.238C446.779 212.252 446.77 212.264 446.758 212.272C446.747 212.281 446.732 212.285 446.718 212.285C446.703 212.285 446.689 212.281 446.677 212.272C446.665 212.264 446.656 212.252 446.651 212.238C446.472 211.216 446.449 210.155 446.363 209.118C446.277 208.081 446.199 206.942 446.144 205.858C446.02 203.681 445.957 201.497 445.762 199.329C445.764 199.315 445.772 199.301 445.784 199.293C445.795 199.284 445.81 199.28 445.825 199.282C445.839 199.284 445.852 199.292 445.861 199.304C445.87 199.315 445.873 199.33 445.871 199.345Z" fill="#455A64"/>
<path d="M450.559 220.061C453.102 226.255 480.246 315.042 480.542 315.814C480.542 315.877 480.464 315.916 480.433 315.853C476.806 308.755 453.632 228.657 451.323 222.417L450.458 220.077C450.434 220.046 450.536 220.007 450.559 220.061Z" fill="#455A64"/>
<path d="M479.528 318.575C480.589 318.427 481.688 318.435 482.757 318.357C483.826 318.279 484.91 318.263 485.986 318.24C488.139 318.193 490.292 318.159 492.445 318.139C496.719 318.084 501.025 318.068 505.268 318.068C507.709 318.068 510.143 318.201 512.584 318.248C512.662 318.248 512.662 318.365 512.584 318.373C510.439 318.458 508.286 318.591 506.134 318.669C503.981 318.747 501.828 318.763 499.675 318.794C495.338 318.856 491.002 318.926 486.665 318.919C485.456 318.919 484.255 318.919 483.053 318.872C481.852 318.825 480.713 318.872 479.52 318.7C479.442 318.692 479.465 318.583 479.528 318.575Z" fill="#455A64"/>
<path d="M442.603 150.15C435.31 144.971 424.312 132.374 422.136 127.405C419.344 121.017 414.422 98.9586 416.637 96.3846C417.862 94.965 433.797 97.071 434.686 98.8494C435.575 100.628 436.028 120.05 436.246 121.524C436.465 122.998 443.765 136.937 447.837 143.575C452.642 151.32 447.353 153.52 442.603 150.15Z" fill="#AD6359"/>
<path d="M416.894 101.626C416.189 100.334 415.915 98.8497 416.114 97.3908C416.559 95.0508 418.15 92.5782 417.674 91.1508C416.965 88.9122 414.804 85.3164 415.654 84.5052C417.394 82.8282 419.554 83.9826 422.081 88.101C422.737 89.1696 423.704 91.8762 424.507 92.001C425.919 92.2428 426.512 89.7702 426.676 87.5082C426.995 83.1324 426.574 76.7208 429.468 75.894C430.56 75.5742 431.082 77.1654 431.316 79.131C431.426 76.2762 431.855 73.4526 433.056 73.0548C433.366 72.9634 433.7 72.993 433.989 73.1378C434.279 73.2825 434.503 73.5316 434.616 73.8348C434.676 73.4865 434.843 73.1658 435.095 72.9181C435.347 72.6703 435.671 72.5081 436.02 72.4542C437.143 72.267 437.931 73.2342 438.469 74.6772C438.565 74.5661 438.685 74.4793 438.821 74.4237C438.956 74.3681 439.103 74.3454 439.249 74.3574C442.283 74.412 443.602 85.3866 442.541 88.1478C440.316 93.5788 437.355 98.6783 433.742 103.303C429.663 104.52 416.894 101.634 416.894 101.626Z" fill="#AD6359"/>
<path d="M430.911 91.8763C431.805 90.0407 432.279 88.029 432.299 85.9873C432.299 83.5927 431.652 81.2527 431.41 78.8737C431.41 78.8113 431.301 78.8269 431.308 78.8737C431.48 80.0281 431.535 81.2137 431.659 82.3759C431.784 83.5381 431.94 84.6535 431.987 85.7923C432.079 87.8701 431.7 89.9417 430.879 91.8529C430.879 91.8529 430.903 91.8997 430.911 91.8763Z" fill="#263238"/>
<path d="M434.764 92.6016C435.603 90.4344 436.218 88.1866 436.597 85.8936C436.917 83.3742 436.363 80.8548 435.817 78.3978C435.505 76.9236 435.17 75.4572 434.795 73.9986C434.795 73.9362 434.678 73.944 434.694 73.9986C435.24 76.5024 435.716 79.0296 436.106 81.5724C436.485 83.9273 436.397 86.3337 435.848 88.6548C435.528 89.973 435.068 91.2756 434.694 92.5548C434.725 92.6094 434.756 92.625 434.764 92.6016Z" fill="#263238"/>
<path d="M438.703 92.4144C439.637 90.5199 440.221 88.4719 440.426 86.3694C440.461 83.7904 440.173 81.2172 439.568 78.7098C439.264 77.3526 438.921 76.011 438.554 74.6694C438.554 74.6148 438.445 74.6694 438.453 74.6694C439.21 77.6717 439.77 80.7201 440.13 83.7954C440.327 85.2581 440.292 86.7425 440.029 88.1946C439.703 89.6244 439.254 91.0232 438.687 92.3754C438.687 92.3754 438.695 92.4222 438.703 92.4144Z" fill="#263238"/>
<path d="M436.137 105.3L415.974 109.567C415.974 109.567 420.249 125.362 421.988 129.067C423.727 132.772 437.682 148.684 443.118 151.538C448.555 154.393 452.151 151.468 448.75 144.175C445.349 136.882 437.916 122.967 437.448 121.415C436.98 119.863 436.137 105.3 436.137 105.3Z" fill="#455A64"/>
<path d="M447.54 149.869C447.075 150.215 446.651 150.612 446.277 151.055C446.803 150.816 447.3 150.517 447.759 150.166C448.223 149.822 448.645 149.424 449.014 148.98C448.492 149.221 447.997 149.519 447.54 149.869ZM442.86 141.851C442.466 142.936 442.307 144.092 442.392 145.244C442.786 144.159 442.946 143.002 442.86 141.851ZM422.845 121.501C422.503 121.035 422.108 120.611 421.668 120.237C421.901 120.766 422.2 121.264 422.557 121.719C422.898 122.183 423.293 122.605 423.735 122.975C423.499 122.453 423.206 121.958 422.861 121.501H422.845ZM419.125 108.88L418.743 108.958C419.081 109.42 419.474 109.839 419.913 110.206C419.706 109.737 419.447 109.292 419.14 108.88H419.125ZM437.307 137.218C436.964 136.752 436.569 136.328 436.129 135.954C436.362 136.483 436.661 136.981 437.018 137.436C437.359 137.9 437.754 138.322 438.196 138.692C437.96 138.17 437.667 137.675 437.322 137.218H437.307ZM433.11 123.279C432.646 123.62 432.224 124.015 431.854 124.457C432.379 124.219 432.874 123.92 433.329 123.568C433.793 123.227 434.215 122.831 434.584 122.39C434.066 122.629 433.576 122.927 433.126 123.279H433.11ZM429.561 106.673L429.444 106.805L429.858 106.61L429.561 106.673ZM439.475 128.7C438.905 128.615 438.326 128.597 437.751 128.645C438.837 129.039 439.993 129.199 441.144 129.113C440.606 128.912 440.046 128.773 439.475 128.7ZM425.529 113.537C424.958 113.452 424.38 113.434 423.805 113.482C424.888 113.884 426.046 114.046 427.198 113.958C426.66 113.754 426.099 113.613 425.529 113.537ZM427.869 128.895C427.475 129.98 427.315 131.137 427.401 132.288C427.795 131.203 427.954 130.046 427.869 128.895ZM435.739 111.01C435.338 112.096 435.176 113.256 435.263 114.41C435.654 113.322 435.816 112.164 435.739 111.01Z" fill="white"/>
<path d="M435.286 110.932C432.439 111.712 420.669 114.317 418.126 114.715C417.947 114.715 417.892 114.637 418.072 114.59C423.72 113.015 429.452 111.755 435.24 110.815C435.247 110.812 435.255 110.81 435.264 110.81C435.272 110.81 435.28 110.812 435.288 110.815C435.295 110.819 435.302 110.823 435.308 110.829C435.314 110.835 435.318 110.842 435.321 110.85C435.325 110.857 435.326 110.866 435.326 110.874C435.326 110.882 435.324 110.89 435.321 110.898C435.318 110.906 435.313 110.912 435.307 110.918C435.301 110.924 435.294 110.929 435.286 110.932Z" fill="#263238"/>
<path d="M443.118 151.484C439.218 149.44 430.973 140.689 425.958 134.534L445.575 137.654C446.784 140.041 447.915 142.334 448.757 144.152C452.15 151.414 448.562 154.346 443.118 151.484Z" fill="#263238"/>
<path d="M475.145 191.194C475.145 191.194 428.041 197.699 427.939 197.613C427.245 197.059 429.686 146.702 431.558 142.381C433.563 137.748 439.803 135.361 443.313 137.296C452.119 142.217 463.289 162.318 465.933 168.558C470.34 178.831 474.848 188.386 475.145 191.194Z" fill="#455A64"/>
<path d="M437.323 137.218C437.205 137.254 437.091 137.298 436.979 137.35L437.05 137.452C437.39 137.916 437.786 138.338 438.227 138.708C437.982 138.179 437.679 137.679 437.323 137.218ZM436.199 186.748C435.799 187.834 435.637 188.994 435.724 190.149C436.114 189.06 436.276 187.902 436.199 186.748ZM452.579 155.267C452.179 156.353 452.017 157.513 452.104 158.668C452.494 157.579 452.656 156.421 452.579 155.267ZM442.907 141.851C442.514 142.936 442.354 144.093 442.439 145.244C442.833 144.159 442.993 143.002 442.907 141.851ZM455.294 193.791C455.272 193.839 455.254 193.889 455.239 193.939H455.302C455.293 193.889 455.28 193.839 455.263 193.791H455.294ZM444.678 173.16C444.284 174.245 444.125 175.402 444.21 176.553C444.604 175.468 444.763 174.311 444.678 173.16ZM432.198 159.12C431.805 160.208 431.645 161.367 431.73 162.521C432.123 161.433 432.283 160.274 432.198 159.12ZM464.038 176.062C463.829 176.601 463.687 177.164 463.616 177.739C463.532 178.309 463.513 178.888 463.562 179.463C463.764 178.921 463.903 178.359 463.975 177.786C464.07 177.213 464.093 176.632 464.045 176.054L464.038 176.062ZM455.824 150.79C455.622 150.778 455.419 150.778 455.216 150.79C455.47 150.89 455.731 150.973 455.996 151.039L455.824 150.79ZM442.338 157.81C441.767 157.725 441.189 157.707 440.614 157.755C441.698 158.157 442.855 158.319 444.007 158.231C443.472 158.019 442.915 157.87 442.346 157.786L442.338 157.81ZM456.339 172.63C455.768 172.545 455.19 172.527 454.615 172.575C455.701 172.969 456.857 173.128 458.008 173.043C457.473 172.831 456.916 172.682 456.347 172.599L456.339 172.63ZM429.952 169.947C429.595 169.898 429.235 169.869 428.875 169.861C428.875 169.939 428.875 170.017 428.875 170.095C429.22 170.184 429.569 170.254 429.92 170.305C430.491 170.39 431.069 170.408 431.644 170.36C431.102 170.146 430.537 169.997 429.959 169.915L429.952 169.947ZM458.64 189.057C458.07 188.972 457.491 188.954 456.916 189.002C458.004 189.395 459.163 189.555 460.317 189.47C459.776 189.269 459.213 189.13 458.64 189.057ZM444.038 184.439C443.468 184.354 442.889 184.336 442.315 184.384C443.403 184.778 444.562 184.937 445.715 184.852C445.176 184.652 444.616 184.513 444.046 184.439H444.038ZM429.437 183.035C429.025 182.983 428.611 182.954 428.197 182.949C428.193 183.014 428.193 183.079 428.197 183.144C428.588 183.254 428.987 183.338 429.39 183.394C429.96 183.482 430.539 183.501 431.114 183.448C430.575 183.247 430.015 183.108 429.445 183.035H429.437ZM447.533 149.869C447.068 150.215 446.644 150.613 446.269 151.055C446.795 150.816 447.293 150.517 447.751 150.166C448.216 149.822 448.637 149.424 449.007 148.98C448.487 149.222 447.995 149.52 447.541 149.869H447.533ZM463.96 168.652C463.495 168.992 463.074 169.388 462.704 169.83C463.228 169.591 463.723 169.293 464.178 168.94C464.642 168.6 465.064 168.204 465.434 167.763C464.912 168.001 464.42 168.3 463.967 168.652H463.96ZM449.522 166.234C449.057 166.574 448.636 166.97 448.266 167.412C448.79 167.173 449.285 166.875 449.74 166.522C450.205 166.182 450.626 165.786 450.996 165.345C450.475 165.583 449.982 165.882 449.53 166.234H449.522ZM468.577 187.746C468.111 188.085 467.689 188.48 467.321 188.924C468.368 188.433 469.3 187.729 470.059 186.857C469.533 187.091 469.038 187.389 468.585 187.746H468.577ZM447.517 191.209C447.051 191.548 446.629 191.944 446.261 192.387C447.308 191.896 448.24 191.192 448.999 190.32C448.476 190.555 447.983 190.853 447.533 191.209H447.517ZM435.404 176.577C434.938 176.915 434.516 177.311 434.148 177.754C435.194 177.263 436.127 176.559 436.886 175.687C436.362 175.922 435.869 176.22 435.419 176.577H435.404ZM450.224 143.442C450.168 143.363 450.109 143.288 450.044 143.216C449.836 142.972 449.626 142.738 449.413 142.514C449.309 142.412 449.2 142.315 449.085 142.225C449.321 142.753 449.62 143.251 449.974 143.707C450.315 144.172 450.71 144.593 451.152 144.963C450.905 144.421 450.593 143.91 450.224 143.442ZM459.054 161.499C458.711 161.034 458.316 160.61 457.876 160.236C458.112 160.763 458.41 161.261 458.765 161.718C459.106 162.182 459.501 162.604 459.943 162.973C459.705 162.449 459.406 161.954 459.054 161.499ZM471.409 181.062C471.156 180.754 470.874 180.472 470.566 180.219C470.8 180.748 471.098 181.246 471.455 181.701C471.611 181.896 471.752 182.083 471.924 182.271L471.409 181.062ZM440.989 195C441.111 195.288 441.257 195.564 441.425 195.827L441.769 195.78C441.525 195.494 441.253 195.233 440.957 195H440.989ZM429.647 193.69C429.305 193.225 428.91 192.801 428.47 192.426C428.703 192.955 429.002 193.453 429.359 193.908C429.7 194.373 430.095 194.794 430.537 195.164C430.286 194.64 429.977 194.145 429.616 193.69H429.647ZM454.171 181.475C453.828 181.01 453.433 180.586 452.993 180.211C453.226 180.741 453.525 181.238 453.882 181.693C454.223 182.158 454.618 182.579 455.06 182.949C454.809 182.425 454.5 181.93 454.139 181.475H454.171ZM436.925 150.275C436.582 149.81 436.187 149.386 435.747 149.011C435.98 149.541 436.279 150.038 436.636 150.493C436.977 150.958 437.372 151.379 437.814 151.749C437.565 151.217 437.256 150.714 436.894 150.252L436.925 150.275ZM439.709 165.781C439.367 165.316 438.972 164.892 438.532 164.518C438.765 165.047 439.064 165.545 439.421 166C439.762 166.464 440.157 166.886 440.599 167.256C440.349 166.723 440.041 166.221 439.678 165.758L439.709 165.781Z" fill="white"/>
<path d="M433.75 144.69C435.957 145.057 441.643 140.696 442.642 137.179C442.704 136.937 441.862 134.745 440.957 132.038C440.419 130.393 439.857 128.552 439.459 126.828L429.272 131.914C430.377 133.924 431.234 136.061 431.823 138.278C431.874 138.517 431.902 138.76 431.909 139.004C431.905 139.043 431.905 139.082 431.909 139.121C432.01 140.509 431.207 144.3 433.75 144.69Z" fill="#AD6359"/>
<path d="M438.945 127.085C439.101 129.503 439.148 137.389 433.048 138.926C432.678 139.026 432.299 139.094 431.917 139.129C431.914 139.087 431.914 139.045 431.917 139.004C431.906 138.76 431.878 138.518 431.831 138.278C431.246 136.06 430.389 133.922 429.281 131.914L438.945 127.085Z" fill="#263238"/>
<path d="M429.296 109.325C429.296 109.325 425.396 109.996 423.836 113.49C422.276 116.984 422.276 121.001 422.565 121.29C422.854 121.579 429.296 109.325 429.296 109.325Z" fill="#263238"/>
<path d="M442.556 117.055C442.853 121.15 438.298 131.734 435.014 133.575C430.256 136.243 423.719 135.135 421.754 129.675C419.866 124.41 426.044 110.721 429.554 109.177C434.842 106.899 442.127 111.01 442.556 117.055Z" fill="#AD6359"/>
<path d="M429.702 121.742C429.702 121.742 429.741 121.797 429.702 121.828C429.366 122.53 429.093 123.388 429.632 123.903C429.632 123.903 429.632 123.958 429.632 123.942C428.898 123.482 429.265 122.351 429.702 121.742Z" fill="#263238"/>
<path d="M430.661 121.282C431.839 121.703 430.911 124.036 429.819 123.622C428.727 123.209 429.671 120.9 430.661 121.282Z" fill="#263238"/>
<path d="M425.716 119.995C425.716 119.995 425.646 119.995 425.638 119.995C425.373 120.721 424.944 121.555 424.195 121.493V121.54C425.029 121.781 425.583 120.728 425.716 119.995Z" fill="#263238"/>
<path d="M425.373 118.981C424.25 118.427 423.228 120.721 424.273 121.228C425.318 121.735 426.317 119.441 425.373 118.981Z" fill="#263238"/>
<path d="M432.556 119.441C432.213 119.371 431.901 119.254 431.566 119.153C431.203 119.102 430.869 118.932 430.614 118.669C430.551 118.572 430.521 118.457 430.53 118.342C430.538 118.226 430.584 118.117 430.661 118.03C430.841 117.878 431.058 117.778 431.291 117.741C431.523 117.704 431.761 117.731 431.979 117.819C432.449 117.924 432.861 118.202 433.133 118.599C433.185 118.692 433.21 118.797 433.206 118.903C433.201 119.009 433.167 119.112 433.107 119.2C433.047 119.287 432.963 119.356 432.866 119.399C432.769 119.442 432.661 119.457 432.556 119.441Z" fill="#263238"/>
<path d="M424.553 117.71C424.801 117.937 425.062 118.151 425.333 118.349C425.586 118.613 425.917 118.788 426.277 118.849C426.395 118.846 426.508 118.804 426.599 118.729C426.689 118.654 426.752 118.55 426.777 118.435C426.795 118.201 426.75 117.967 426.645 117.756C426.541 117.546 426.381 117.368 426.184 117.242C425.831 116.918 425.368 116.739 424.889 116.743C424.781 116.752 424.679 116.793 424.594 116.86C424.508 116.926 424.444 117.016 424.409 117.118C424.374 117.22 424.368 117.33 424.394 117.435C424.42 117.54 424.475 117.636 424.553 117.71Z" fill="#263238"/>
<path d="M428.313 128.115C428.082 128.265 427.806 128.329 427.533 128.294C427.266 128.184 427.026 128.016 426.831 127.803C426.831 127.803 426.784 127.803 426.784 127.803C426.829 127.992 426.926 128.166 427.064 128.303C427.202 128.441 427.375 128.538 427.564 128.583C427.726 128.601 427.89 128.571 428.035 128.498C428.18 128.424 428.301 128.31 428.383 128.17C428.387 128.16 428.387 128.15 428.384 128.141C428.381 128.131 428.376 128.123 428.368 128.117C428.36 128.111 428.351 128.107 428.341 128.107C428.331 128.107 428.321 128.11 428.313 128.115Z" fill="#263238"/>
<path d="M428.415 125.658C428.117 125.869 427.78 126.017 427.423 126.092C427.066 126.167 426.697 126.168 426.34 126.095C426.029 126.03 425.727 125.925 425.443 125.783C425.387 125.755 425.332 125.723 425.279 125.689L425.1 125.58C425.065 125.557 425.039 125.523 425.025 125.484C425.011 125.444 425.01 125.402 425.022 125.362V125.291V125.229C425.224 124.667 425.614 123.841 425.614 123.841C425.373 123.841 424.156 123.919 424.288 123.63C425.348 121.164 426.655 118.812 428.188 116.61C428.198 116.593 428.213 116.581 428.231 116.576C428.25 116.571 428.269 116.573 428.286 116.583C428.302 116.592 428.315 116.607 428.32 116.626C428.325 116.644 428.322 116.664 428.313 116.68C427.338 118.973 425.973 121.079 424.959 123.373C425.396 123.343 425.836 123.38 426.262 123.482C426.332 123.536 425.482 125.042 425.404 125.315C425.84 125.543 426.318 125.68 426.808 125.719C427.299 125.758 427.792 125.697 428.259 125.541C428.446 125.58 428.485 125.619 428.415 125.658Z" fill="#263238"/>
<path d="M425.88 125.627C426.018 126.144 426.286 126.616 426.66 127C426.877 127.198 427.149 127.325 427.44 127.366C428.072 127.444 428.298 126.922 428.376 126.43C428.407 126.171 428.407 125.909 428.376 125.65C427.562 125.907 426.688 125.898 425.88 125.627Z" fill="#263238"/>
<path d="M426.66 127C426.877 127.198 427.149 127.325 427.44 127.366C428.071 127.444 428.298 126.922 428.376 126.43C428.067 126.318 427.73 126.314 427.419 126.417C427.107 126.52 426.84 126.726 426.66 127Z" fill="#FF9CBD"/>
<path d="M438.968 126.532C437.673 126.438 437.689 122.421 437.829 120.931C437.962 119.621 439.031 115.713 439.077 115.471C439.124 115.229 432.72 116.828 430.123 114.832C427.526 112.835 426.59 109.457 427.003 108.209C427.416 106.961 432.284 105.269 435.497 106.33C438.711 107.39 441.41 113.038 441.41 113.038C441.123 112.253 440.899 111.447 440.739 110.627C441.244 110.965 441.658 111.423 441.943 111.959C442.229 112.495 442.378 113.093 442.377 113.701C442.377 113.701 442.681 111.727 442.845 111.751C443.009 111.774 443.991 113.95 443.172 114.988C443.172 114.988 444.389 117.281 443.882 119.083C443.375 120.884 440.497 126.641 438.968 126.532Z" fill="#263238"/>
<path d="M428.274 113.381C428.962 114.185 429.767 114.882 430.661 115.448C431.704 115.958 432.855 116.204 434.015 116.165C435.174 116.162 436.325 115.973 437.424 115.604C438.383 115.284 439.319 114.824 440.31 114.574C440.559 114.512 440.676 114.886 440.481 115.019C438.462 116.349 436.07 116.997 433.656 116.867C432.534 116.807 431.446 116.456 430.5 115.849C429.554 115.242 428.781 114.4 428.259 113.404C428.259 113.404 428.267 113.373 428.274 113.381Z" fill="#263238"/>
<path d="M438.141 125.658C438.141 125.658 441.519 122.717 442.907 124.012C444.296 125.307 441.136 129.987 439.069 130.252C438.804 130.302 438.532 130.298 438.269 130.239C438.005 130.181 437.757 130.07 437.538 129.912C437.319 129.754 437.135 129.554 436.996 129.323C436.857 129.092 436.766 128.835 436.729 128.567L438.141 125.658Z" fill="#AD6359"/>
<path d="M441.971 125.33V125.385C440.513 125.588 439.506 126.649 438.695 127.803C438.805 127.689 438.939 127.601 439.087 127.544C439.235 127.487 439.393 127.463 439.551 127.473C439.709 127.484 439.863 127.528 440.002 127.604C440.141 127.68 440.262 127.785 440.357 127.912C440.357 127.912 440.357 127.99 440.302 127.975C440.088 127.841 439.838 127.777 439.586 127.792C439.335 127.808 439.094 127.901 438.898 128.06C438.567 128.323 438.269 128.624 438.009 128.957C437.915 129.059 437.72 128.957 437.798 128.817C438.196 127.085 440.107 125.05 441.971 125.33Z" fill="#263238"/>
<path d="M433.961 153.332C424.523 151.492 406.162 143.364 403.299 141.258C397.301 136.835 385.102 115.183 386.139 111.719C386.717 109.808 403.112 109.192 404.789 110.518C406.466 111.844 413.712 128.068 414.602 129.386C415.491 130.705 434.008 143.2 438.072 146.757C445.427 153.2 440.1 154.534 433.961 153.332Z" fill="#AD6359"/>
<path d="M403.666 116.477C403.666 116.477 407.129 110.292 409.204 106.135C410.358 103.795 411.988 99.6685 412.059 97.5547C412.168 94.4347 410.616 81.2761 407.418 81.5803C404.524 81.8611 407.293 92.9917 407.293 92.9917C407.293 92.9917 405.491 81.5101 402.067 82.4851C398.643 83.4601 403.447 95.6203 403.447 95.6203C403.447 95.6203 401.334 83.8735 397.987 85.4335C395.437 86.6191 399.165 97.9135 399.165 97.9135C399.165 97.9135 397.278 87.8281 394.602 88.9279C391.654 90.1525 394.438 100.76 394.438 100.76C388.12 104.707 385.585 107.476 386.116 112.46C386.178 113.256 403.666 116.477 403.666 116.477Z" fill="#AD6359"/>
<path d="M408.479 97.9056C408.315 96.5484 408.159 95.1756 407.878 93.8418C407.597 92.508 407.27 91.1742 406.864 89.8716C406.372 88.1562 405.686 86.5023 404.82 84.942C406.003 87.8468 406.914 90.8549 407.543 93.9276C407.823 95.2614 408.166 96.5874 408.455 97.9212C408.439 97.9524 408.486 97.9368 408.479 97.9056Z" fill="#263238"/>
<path d="M403.673 99.0133C403.392 97.2895 403.174 95.5735 402.815 93.8653C402.456 92.1571 401.871 89.7937 401.403 88.1167C401.403 87.9919 401.162 87.9841 401.193 88.1167C401.598 89.8093 402.082 92.2507 402.472 93.9433C402.862 95.6359 403.307 97.3207 403.634 99.0211C403.634 99.0601 403.673 99.0601 403.673 99.0133Z" fill="#263238"/>
<path d="M399.718 100.706C399.35 98.0465 398.707 95.4325 397.799 92.9058C397.76 92.781 397.69 92.9058 397.729 92.9994C398.416 95.5734 398.969 97.5858 399.625 100.698C399.632 100.768 399.718 100.76 399.718 100.706Z" fill="#263238"/>
<path d="M388.042 119.465L409.453 117.265C409.453 117.265 413.907 127.577 414.796 128.809C415.685 130.042 435.755 143.27 439.756 146.593C443.757 149.916 443.063 156.086 434.452 154.393C427.019 152.935 406.918 144.604 403.127 142.061C399.336 139.519 388.042 119.465 388.042 119.465Z" fill="#455A64"/>
<path d="M436.894 150.251C436.551 149.786 436.156 149.362 435.716 148.988C435.949 149.517 436.248 150.015 436.605 150.47C436.946 150.934 437.341 151.356 437.783 151.726C437.542 151.203 437.243 150.709 436.894 150.251ZM428.314 149.877C427.849 150.218 427.428 150.613 427.058 151.055C427.582 150.817 428.077 150.518 428.532 150.166C428.994 149.822 429.413 149.424 429.78 148.98C429.261 149.222 428.771 149.523 428.321 149.877H428.314ZM429.234 141.406C428.663 141.322 428.085 141.303 427.51 141.352C428.594 141.753 429.751 141.915 430.903 141.827C430.367 141.624 429.81 141.483 429.242 141.406H429.234ZM421.59 145.306C421.197 146.394 421.037 147.553 421.122 148.707C421.515 147.619 421.675 146.46 421.59 145.306ZM394.789 122.226C394.447 121.761 394.051 121.337 393.611 120.962C393.845 121.492 394.143 121.99 394.501 122.444C394.841 122.909 395.237 123.331 395.678 123.7C395.437 123.178 395.139 122.683 394.789 122.226ZM416.949 132.998C416.606 132.533 416.211 132.109 415.771 131.734C416.007 132.262 416.306 132.759 416.66 133.216C417.001 133.681 417.397 134.102 417.838 134.472C417.6 133.948 417.302 133.453 416.949 132.998ZM407.425 135.72C406.961 136.061 406.539 136.456 406.169 136.898C406.694 136.66 407.188 136.361 407.644 136.009C408.108 135.668 408.53 135.272 408.899 134.831C408.375 135.069 407.88 135.367 407.425 135.72ZM421.863 138.138C421.399 138.479 420.977 138.874 420.607 139.316C421.131 139.078 421.626 138.779 422.081 138.427C422.546 138.086 422.967 137.691 423.337 137.249C422.812 137.489 422.318 137.79 421.863 138.146V138.138ZM405.436 119.34C404.971 119.685 404.547 120.083 404.173 120.526C404.699 120.286 405.196 119.988 405.655 119.636C406.119 119.293 406.541 118.895 406.91 118.451C406.388 118.692 405.893 118.99 405.436 119.34ZM413.15 142.327C412.58 142.242 412.001 142.224 411.427 142.272C412.512 142.666 413.668 142.825 414.82 142.74C414.28 142.546 413.72 142.416 413.15 142.35V142.327ZM400.826 128.864C400.256 128.779 399.677 128.761 399.103 128.809C400.186 129.211 401.343 129.373 402.496 129.285C401.956 129.089 401.396 128.955 400.826 128.887V128.864ZM405.031 141.827C404.891 142.192 404.784 142.567 404.711 142.951L405.023 143.114C405.067 142.695 405.069 142.271 405.031 141.851V141.827ZM410.444 124.8C410.043 125.886 409.881 127.046 409.968 128.201C410.359 127.112 410.521 125.954 410.444 124.8Z" fill="white"/>
<path d="M392.496 124.512C395.437 124.285 407.425 122.952 409.991 122.476C410.171 122.476 410.194 122.328 409.991 122.335C404.121 122.698 398.275 123.385 392.48 124.395C392.469 124.4 392.459 124.41 392.453 124.421C392.447 124.433 392.445 124.446 392.446 124.459C392.448 124.471 392.454 124.484 392.463 124.493C392.472 124.502 392.483 124.509 392.496 124.512Z" fill="#263238"/>
<path d="M438.492 156.406C436.72 155.802 434.996 155.064 433.336 154.198C431.664 153.366 430.046 152.428 428.493 151.39C430.237 152.049 431.943 152.807 433.602 153.66C434.429 154.089 435.255 154.518 436.066 154.97C436.878 155.423 437.689 155.922 438.492 156.406Z" fill="#263238"/>
<path d="M433.29 153.847C432.691 153.805 432.099 153.69 431.527 153.504C430.951 153.329 430.399 153.085 429.881 152.779C430.481 152.823 431.073 152.941 431.644 153.13C432.219 153.304 432.771 153.545 433.29 153.847Z" fill="#263238"/>
<path d="M439.756 146.593C438.913 146.121 438.128 145.553 437.416 144.901C436.695 144.271 436.051 143.559 435.497 142.779C436.34 143.251 437.125 143.819 437.837 144.472C438.558 145.101 439.202 145.813 439.756 146.593Z" fill="#263238"/>
</svg>
